<?xml version="1.0" encoding="utf-8"?>
<!-- Generator: Adobe Illustrator 27.5.0, SVG Export Plug-In . SVG Version: 6.00 Build 0)  -->
<svg version="1.1" xmlns="http://www.w3.org/2000/svg" xmlns:xlink="http://www.w3.org/1999/xlink" x="0px" y="0px"
	 viewBox="0 0 500 500" style="enable-background:new 0 0 500 500;" xml:space="preserve">
<g id="BACKGROUND">
	<rect style="fill:#CFC6F2;" width="500" height="500"/>
</g>
<g id="OBJECTS">
	<g>
		<path style="fill:#BCAEF2;" d="M395.885,248.028c-0.971,32.67-13.834,64.526-34.708,89.618
			c-5.958,7.175-12.58,13.797-19.762,19.717c-8.727,7.212-18.291,13.393-28.526,18.306c-24.405,11.714-52.073,15.924-78.972,13.02
			c-26.13-2.792-51.528-12.296-72.522-28.131c-42.607-32.132-65.138-88.902-56.164-141.512c0.478-2.777,1.038-5.54,1.687-8.272
			c9.825-41.681,39.188-78.211,77.195-97.808c9.384-4.838,19.291-8.645,29.564-11.243c25.286-6.391,52.282-5.86,77.3,1.523
			c0.172,0.045,0.344,0.097,0.515,0.149c35.962,10.758,67.393,35.918,85.751,68.662c3.755,6.704,6.973,13.7,9.623,20.911
			c5.009,13.61,8.011,27.959,8.839,42.435C395.952,239.606,396.012,243.817,395.885,248.028z"/>
		<path style="fill:#BCAEF2;" d="M263.035,398.939c-5.992-0.736-12.48,0.465-18.558,0.292c-5.94-0.17-11.878-0.684-17.753-1.581
			c-11.662-1.782-23.143-4.917-34.126-9.216c-11.21-4.388-21.775-10.079-31.597-17.041c-4.91-3.481-9.599-7.266-14.043-11.325
			c-4.197-3.834-8.224-8.86-13.061-11.85c-0.777-0.481-1.439,0.436-1.137,1.137c1.709,3.964,5.408,7.71,8.466,10.703
			c3.592,3.517,7.366,6.848,11.296,9.983c7.4,5.902,15.31,11.143,23.652,15.618c17.058,9.152,35.202,15.406,54.429,17.968
			c5.564,0.741,11.161,1.201,16.773,1.327c5.204,0.117,11.324,0.615,16.344-0.944C266.667,403.093,265.822,399.281,263.035,398.939z
			"/>
		<path style="fill:#BCAEF2;" d="M317.291,385.303c-9.795,3.014-19.719,5.852-29.332,9.409c-2.847,1.053-1.765,5.363,1.271,4.612
			c9.942-2.46,19.738-5.693,29.526-8.705C322.136,389.577,320.694,384.255,317.291,385.303z"/>
		<path style="fill:#BCAEF2;" d="M408.666,266.659c-0.628-0.882-1.846-1.179-2.679-0.345c-2.114,2.115-1.881,5.471-2.259,8.289
			c-0.51,3.797-1.183,7.569-2.015,11.308c-1.582,7.105-3.73,14.086-6.419,20.85c-2.679,6.74-5.927,13.273-9.633,19.506
			c-1.912,3.216-3.959,6.355-6.132,9.4c-2.136,2.993-4.815,5.809-6.384,9.15c-0.718,1.529,0.868,3.708,2.554,2.554
			c5.678-3.887,9.828-11.18,13.433-16.908c4.117-6.54,7.637-13.415,10.601-20.55c2.953-7.108,5.33-14.454,7.059-21.955
			c0.841-3.647,1.533-7.329,2.072-11.033C409.324,273.751,410.648,269.439,408.666,266.659z"/>
		<path style="fill:#BCAEF2;" d="M408.919,239.115c-0.371-2.167-0.74-4.335-1.112-6.501c-0.312-1.818-0.243-3.911-1.725-5.167
			c-0.602-0.51-1.57-0.507-1.992,0.257c-0.971,1.755-0.225,3.56,0.144,5.441c0.45,2.296,0.911,4.59,1.367,6.885
			C406.035,242.216,409.288,241.27,408.919,239.115z"/>
		<path style="fill:#BCAEF2;" d="M402.358,198.988c-0.493-2.74-0.94-5.51-1.836-8.152c-0.696-2.052-3.981-1.823-3.924,0.531
			c0.064,2.642,0.541,5.255,0.985,7.855c0.401,2.352,0.338,5.089,2.156,6.795c0.773,0.726,2.225,0.689,2.748-0.354
			C403.593,203.458,402.78,201.332,402.358,198.988z"/>
		<path style="fill:#BCAEF2;" d="M369.317,148.136c-10.054-14.468-22.963-26.685-37.963-35.934
			c-7.302-4.503-15.077-8.295-23.134-11.245c-8.106-2.968-17.35-6.005-26.057-6.077c-1.804-0.015-2.143,2.627-0.423,3.122
			c8.105,2.334,16.336,3.594,24.313,6.515c7.917,2.899,15.529,6.563,22.722,10.962c14.548,8.898,27.246,20.742,37.042,34.704
			C367.303,152.299,370.813,150.288,369.317,148.136z"/>
		<path style="fill:#BCAEF2;" d="M133.802,136.186c-4.717,3.264-7.922,9.233-11.115,13.927c-3.667,5.392-7.095,10.959-10.283,16.647
			c-6.128,10.933-11.262,22.435-15.094,34.374c-7.813,24.338-10.233,52.713-1.463,77.17c0.669,1.865,3.547,1.135,3.009-0.83
			c-3.438-12.561-5.336-25.034-4.795-38.095c0.533-12.878,3.072-25.63,7.132-37.85c3.912-11.775,9.33-23.023,15.573-33.731
			c3.069-5.265,6.369-10.384,9.796-15.422c3.11-4.572,7.642-9.229,9.49-14.463C136.483,136.69,134.882,135.438,133.802,136.186z"/>
	</g>
	<g>
		<g>
			<path style="fill:#F0ECEB;" d="M236.422,398.881c4.478,1.379,9.255,2.453,13.801,3.59c-0.671,4.337-1.858,8.591-3.526,12.648
				c-0.405,0.984-1.415,1.993-2.168,2.749c-3.997-2.182-8.112-4.151-12.32-5.897C233.826,407.653,235.108,403.3,236.422,398.881z"/>
			<path style="fill:#6C2918;" d="M236.284,413.517c-0.548,1.74-0.949,3.823-0.058,5.431c2.68,4.837,4.932,8.047,1.634,17.576
				c-0.511,1.477-1.129,3.021-0.831,4.56c0.462,2.393,3.598,3.855,5.74,2.676c1.543-0.849,2.294-2.598,2.94-4.225
				c4.315-10.868,8.668-21.879,10.112-33.489c0.205-1.648,0.298-3.49-0.751-4.799c-0.624-0.779-1.564-1.24-2.497-1.605
				c-2.125-0.831-4.395-1.295-6.673-1.365c-1.777-0.054-3.933,0.407-4.476,2.075c-0.466,1.434,2.542,3.327,3.664,4.534
				C249.213,409.326,237.654,409.169,236.284,413.517z"/>
			<path style="fill:#3B231F;" d="M242.962,444.594c0.775,0.359,1.48-0.58,1.798-1.359c4.131-10.095,7.342-20.536,10.547-30.961
				c0.794-2.583,1.591-5.175,2.052-7.839c0.139-0.799,0.243-1.641-0.033-2.408c-0.277-0.767-1.052-1.422-1.863-1.299
				c-1.098,0.167-1.515,1.478-1.723,2.556c-0.447,2.316-0.969,4.617-1.517,6.911c-2.263,9.474-4.97,18.841-8.109,28.06
				C243.782,439.235,241.43,443.883,242.962,444.594z"/>
			<path style="fill:#3B231F;" d="M241.254,423.358c-1.49-0.075-2.895,0.382-4.061,1.282c-0.957,0.738,0.3,2.144,1.251,1.41
				c0.779-0.601,1.73-0.878,2.718-0.828C242.374,425.284,242.473,423.42,241.254,423.358z"/>
			<path style="fill:#3B231F;" d="M238.593,418.149c-1.49-0.075-2.894,0.382-4.061,1.282c-0.957,0.738,0.3,2.144,1.251,1.41
				c0.779-0.601,1.73-0.878,2.718-0.828C239.714,420.074,239.812,418.211,238.593,418.149z"/>
		</g>
		<g>
			<path style="fill:#F0ECEB;" d="M278.466,399.466c-4.561,1.075-9.4,1.825-14.011,2.653c0.378,4.372,1.276,8.696,2.668,12.856
				c0.338,1.009,1.277,2.083,1.978,2.888c4.135-1.908,8.373-3.596,12.689-5.055C280.465,408.392,279.479,403.963,278.466,399.466z"
				/>
			<path style="fill:#6C2918;" d="M277.618,414.078c0.43,1.773,0.69,3.878-0.307,5.423c-2.999,4.646-5.463,7.696-2.813,17.426
				c0.411,1.508,0.923,3.09,0.522,4.606c-0.622,2.356-3.85,3.604-5.908,2.284c-1.483-0.951-2.114-2.747-2.649-4.413
				c-3.574-11.134-7.177-22.412-7.836-34.094c-0.094-1.658-0.063-3.502,1.072-4.737c0.675-0.735,1.644-1.132,2.6-1.434
				c2.177-0.686,4.472-0.997,6.75-0.913c1.777,0.065,3.897,0.671,4.326,2.371c0.369,1.462-2.76,3.148-3.961,4.278
				C265,409.026,276.544,409.647,277.618,414.078z"/>
			<path style="fill:#3B231F;" d="M268.864,444.635c-0.797,0.306-1.437-0.678-1.703-1.477c-3.442-10.35-5.943-20.984-8.44-31.601
				c-0.619-2.631-1.239-5.27-1.521-7.959c-0.085-0.807-0.132-1.654,0.195-2.4c0.328-0.747,1.145-1.348,1.946-1.171
				c1.084,0.24,1.412,1.577,1.547,2.666c0.29,2.341,0.656,4.671,1.048,6.997c1.621,9.605,3.691,19.132,6.203,28.542
				C268.407,439.233,270.441,444.029,268.864,444.635z"/>
			<path style="fill:#3B231F;" d="M271.997,423.562c1.491,0.025,2.862,0.576,3.966,1.553c0.905,0.801-0.444,2.119-1.343,1.323
				c-0.737-0.652-1.667-0.992-2.656-1.009C270.75,425.408,270.777,423.541,271.997,423.562z"/>
			<path style="fill:#3B231F;" d="M275.003,418.544c1.491,0.025,2.862,0.576,3.966,1.553c0.905,0.801-0.444,2.119-1.343,1.323
				c-0.737-0.652-1.667-0.992-2.656-1.009C273.755,420.389,273.782,418.523,275.003,418.544z"/>
		</g>
		<path style="fill:#3D212F;" d="M395.82,369.434c-0.244,2.581-1.789,4.848-3.506,6.789c-6.768,7.632-16.525,11.799-26.057,15.417
			c-27.663,10.468-58.71,19.319-87.877,24.167c-4.238-4.909-5.884-11.687-6.646-18.577c10.833-5.467,24.36-10.508,35.641-14.919
			c-11.108,1.433-26.86,2.419-43.771,2.551c-0.772,0-1.555,0.01-2.348,0.01c-17.896,0.051-36.901-0.854-52.948-3.191
			c11.23,4.563,23.364,9.065,35.447,15.376c-0.569,5.712-2.602,12.652-9.207,17.348c-29.116-5.224-57.704-13.313-85.234-24.126
			c-9.492-3.73-19.197-8.028-25.854-15.742c-1.697-1.961-3.212-4.248-3.425-6.829c-0.579-7.165,8.161-10.915,15.173-12.48
			c25.894-5.772,51.779-11.545,77.663-17.317c13.12-2.917,25.884-2.094,39.045-1.27c0.488,0.031,0.986,0.061,1.474,0.091
			c1.575,0.102,3.15,0.193,4.736,0.285c0.102,0,0.213-0.01,0.315-0.01c0.681-0.03,1.372-0.061,2.053-0.102
			c14.543-0.681,28.517-1.809,42.866,1.575c25.813,6.098,51.626,12.195,77.44,18.283
			C387.792,358.418,396.491,362.279,395.82,369.434z"/>
		<path style="fill:#301A25;" d="M266.927,367.94c-1.585,0.224-3.191,0.345-4.807,0.447c0.549,5.488,1.199,10.996,1.484,16.474
			c-0.772,0-1.555,0.01-2.348,0.01c-0.742-5.386-1.036-10.915-1.311-16.382c-2.012,0.061-4.025,0.051-6.027,0
			c-0.813-0.02-1.433-0.65-1.453-1.453c-0.335-9.949-1.779-20.224-0.63-30.153c0.01-0.092,0.03-0.173,0.081-0.244
			c0.285-0.62,1.341-0.813,1.463,0.031c0,0.02,0.01,0.041,0.01,0.061c1.291,9.523,0.864,19.238,1.829,28.811
			c1.524-0.061,3.049-0.122,4.563-0.183c-0.061-1.311-0.132-2.622-0.213-3.913c-0.498-8.049-1.209-16.301-1.128-24.441
			c0.02-2.083,0.102-4.167,0.244-6.23c0.061-0.844,1.22-0.823,1.301,0c0.213,2.033,0.376,4.075,0.508,6.128
			c0.488,7.835,0.478,15.742,0.966,23.557c0.091,1.595,0.234,3.211,0.376,4.827c1.575-0.061,3.151-0.102,4.716-0.112
			C268.095,365.176,268.522,367.716,266.927,367.94z"/>
		<path style="fill:#FFA17F;" d="M123.694,295.367c-2.468-2.058-4.146-5.041-4.624-8.218c1.866-0.731,2.864-2.903,3.416-4.83
			c0.441-1.54,0.611-3.206,0.138-4.736c-0.472-1.531-1.677-2.895-3.24-3.247c-0.767-0.173-1.425-0.499-2.138-0.168
			c-0.713,0.331-1.23,1.095-1.179,1.88c0.064,0.98,0.9,1.705,1.376,2.564c0.824,1.491,0.417,3.568-0.949,4.586
			c-1.366,1.018-3.524,0.785-4.593-0.541c-1.416-1.756-0.251-4.46,1.15-5.837c0.55-0.541,1.144-1.094,1.372-1.831
			c1.125-3.624-4.646-2.448-5.872-0.594c-1.52,2.299-2.028,5.242-1.367,7.917c0.027,0.108-0.19,0.137-0.09,0.089
			c-2.238-2.113-2.357-5.311-1.706-8.134c0.278-1.204,1.705-3.146,0.481-4.193c-0.809-0.693-2.525-0.441-3.236,0.282
			c-0.967,0.983-1.172,2.549-1.346,3.85c-0.172,1.284-0.294,2.606,0.019,3.863c-0.586-1.799-1.045-5.218-2.996-6.114
			c-2.523-1.158-3.364,2.382-3.073,4.144c0.33,2.002,1.604,3.802,2.782,5.399c-0.802-1.087-5.531-6.44-7.067-5.232
			c-1.647,1.295-1.312,4.564,12.936,17.805c3.193,2.967,14.91,8.621,15.883,7.291C120.92,299.795,122.412,296.824,123.694,295.367z"
			/>
		<path style="fill:#FFFFFF;" d="M111.563,302.523l10.861-13.493c0,0,3.387,3.134,7.029,5.42l-8.469,14.058
			C120.984,308.509,117.104,307.96,111.563,302.523z"/>
		<path style="fill:#4F2A3D;" d="M208.743,201.523c-19.168,12.122-13.3,87.138-43.28,98.78c-12.088,4.694-27.354-3.401-39.146-8.797
			c-2.539,4.383-4.825,8.194-9.483,16.155c14.591,15.132,48.129,17.147,61.484,10.746c12.703-6.088,21.769-12.44,30.425-51.058
			C214.709,240.735,219.046,226.777,208.743,201.523z"/>
		<path style="fill:#FFA17F;" d="M376.306,292.318c2.468-2.058,4.146-5.041,4.624-8.219c-1.866-0.731-2.864-2.903-3.416-4.83
			c-0.441-1.54-0.611-3.206-0.138-4.736c0.473-1.531,1.677-2.895,3.24-3.247c0.767-0.173,1.425-0.499,2.138-0.168
			c0.713,0.331,1.23,1.095,1.179,1.88c-0.064,0.98-0.9,1.705-1.376,2.564c-0.824,1.491-0.417,3.568,0.948,4.586
			c1.366,1.018,3.524,0.785,4.593-0.541c1.416-1.756,0.251-4.46-1.15-5.837c-0.55-0.541-1.144-1.094-1.372-1.831
			c-1.125-3.624,4.646-2.448,5.872-0.594c1.52,2.299,2.028,5.242,1.367,7.917c-0.027,0.108,0.19,0.137,0.09,0.089
			c2.238-2.113,2.357-5.311,1.706-8.134c-0.278-1.204-1.705-3.146-0.481-4.193c0.809-0.693,2.525-0.441,3.236,0.282
			c0.967,0.983,1.172,2.548,1.346,3.85c0.172,1.284,0.294,2.606-0.02,3.863c0.586-1.799,1.045-5.218,2.996-6.114
			c2.523-1.158,3.364,2.382,3.073,4.144c-0.33,2.002-1.604,3.802-2.782,5.399c0.802-1.087,5.531-6.44,7.067-5.232
			c1.647,1.295,1.312,4.564-12.936,17.805c-3.193,2.967-14.91,8.621-15.883,7.291C379.08,296.746,377.588,293.775,376.306,292.318z"
			/>
		<path style="fill:#FFFFFF;" d="M388.437,299.474l-10.861-13.493c0,0-3.388,3.134-7.029,5.42l8.469,14.058
			C379.016,305.46,382.896,304.911,388.437,299.474z"/>
		<path style="fill:#4F2A3D;" d="M295.527,200.44c19.168,12.122,9.03,85.173,39.01,96.815c12.088,4.694,27.354-3.401,39.146-8.797
			c2.539,4.383,4.825,8.194,9.483,16.155c-14.591,15.132-48.129,17.147-61.484,10.746c-12.703-6.088-21.769-12.44-30.425-51.058
			C285.291,237.686,285.224,225.694,295.527,200.44z"/>
		<path style="fill:#722A14;" d="M303.553,339.097c-10.103,4.695-19.489,10.147-45.623,10.993
			c-18.457,0.598-45.111-7.418-53.812-9.263c0.472-4.965,1.266-7.813,2.825-11.276c31.389,3.771,65.478,7.266,95.437,0
			C303.093,332.507,303.488,336.105,303.553,339.097z"/>
		<path style="fill:#FFFFFF;" d="M281.525,332.997c-23.668,11.722-43.112,0-43.112,0c-4.62-21.055-4.607-78.991-4.158-112.863
			c0.211-15.194,0.502-25.543,0.502-25.543l40.736-4.105c3.194,4.581,5.029,18.956,6.019,36.921
			C283.888,270.071,281.525,332.997,281.525,332.997z"/>
		<path style="fill:#C4CFEF;" d="M281.512,227.408c-15.986,2.178-32.631-0.422-47.257-7.273c0.211-15.194,0.502-25.543,0.502-25.543
			l40.736-4.105C278.687,195.067,280.522,209.442,281.512,227.408z"/>
		<path style="fill:#4F2A3D;" d="M234.775,194.224c6.448,49.284,9.48,94.47,13.095,143.985c-9.45,16.697-30.119,20.253-43.751,2.62
			c-1.32-60.065,9.423-93.463,4.625-139.305C210.393,200.225,226.88,194.224,234.775,194.224z"/>
		<path style="fill:#4F2A3D;" d="M275.494,190.484l-3.823,147.724c0,0,17.312,28.577,36.082,9.282L295.527,200.44
			C295.527,200.44,285.14,192.486,275.494,190.484z"/>
		<polygon style="fill:#AA284C;" points="245.26,201.523 253.18,215.422 247.466,305.853 264.18,327.191 271.671,300.344 
			262.609,215.862 267.7,200.44 		"/>
		<polygon style="fill:#66364F;" points="200.919,319.152 224.906,318.408 225.943,326.644 200.087,326.832 		"/>
		<path style="fill:#66364F;" d="M234.775,194.224c0,0-19.427,9.318-26.032,23.398c0,0,14.099,2.2,17.168,7.04l-11.063,13.2
			l33.021,100.346C247.87,338.208,239.25,209.986,234.775,194.224z"/>
		<path style="fill:#66364F;" d="M275.494,190.484c0,0,18.607,17.457,21.247,28.897c0,0-7.607,0-10.623,2.64
			c0,0,13.767,9.24,15.024,14.96c0,0-26.38,73.571-29.47,101.226L275.494,190.484z"/>
		<path style="fill:#FFFFFF;" d="M256.263,203.322c0,0-10.124,7.04-22.193,9.24c0,0-7.071-10.12,0.705-18.338
			c0,0,22.552,10.925,40.719-3.739c0,0,8.6,8.972,3.427,17.897C278.921,208.382,267.476,209.099,256.263,203.322z"/>
		<polygon style="fill:#66364F;" points="284.63,322.995 308.576,321.42 309.899,329.615 284.064,330.699 		"/>
		<path style="fill:#FFA17F;" d="M275.493,190.486c-14.045,15.945-40.718,3.737-40.718,3.737l0.569-31.543l35.569-2.002
			L275.493,190.486z"/>
		<path style="fill:#FC7F69;" d="M273.557,177.887c-2.673,4.461-9.21,10.407-16.194,11.423c-7.111,1.035-15.159-4.786-22.588-11.687
			l0.569-14.943l35.569-2.002L273.557,177.887z"/>
		<g>
			<path style="fill:#AA284C;" d="M296.378,117.211c3.07-11.512,4.326-27.937,5.567-39.773c-4.158-1.961-8.992-2.553-13.507-1.654
				c5.501-5.312,7.465-13.181,9.31-20.476c-11.926,8.118-30.012,7.459-44.682,7.681c-14.67,0.222-29.302-1.779-43.976-2.021
				c-0.795-0.013-1.655-0.002-2.288,0.456c-0.551,0.398-0.816,1.055-1.043,1.681c-1.329,3.66-2.164,8.03,0.21,11.195
				c-1.875-1.929-8.246-1.078-9.462,1.266c-1.216,2.345-0.733,5.15-0.173,7.726c2.543,11.71,5.695,30.228,14.68,38.556
				c11.052,10.245,29.566,23.451,44.806,22.254C266.652,143.253,294.83,123.019,296.378,117.211z"/>
			<path style="fill:#FFA17F;" d="M218.702,134.149c-4.425,0.41-8.957-0.395-12.97-2.304c-1.555-0.739-3.063-1.667-4.151-3
				c-2.98-3.648-1.808-9.521,1.656-12.713c3.464-3.192,8.53-4.088,13.222-3.673C217.806,118.939,217.356,127.669,218.702,134.149z"
				/>
			<path style="fill:#FFA17F;" d="M286.212,133.139c4.432,0.328,8.948-0.561,12.925-2.544c1.541-0.768,3.031-1.723,4.095-3.076
				c2.911-3.703,1.631-9.553-1.892-12.68c-3.523-3.127-8.604-3.929-13.287-3.428C286.827,117.915,287.438,126.634,286.212,133.139z"
				/>
			<path style="fill:#FC7F69;" d="M287.942,129.782c4.2,0.075,8.374-2.102,10.717-5.588c0.654-0.973,1.18-2.068,1.27-3.237
				c0.09-1.169-0.317-2.42-1.243-3.137c-0.56-0.434-1.259-0.645-1.951-0.796c-2.335-0.507-4.798-0.411-7.086,0.276
				c0.385,1.289,0.125,3.668,0.264,5.006c0.941-0.186,1.915-0.372,2.851-0.165c0.937,0.207,1.833,0.917,1.943,1.87
				c0.153,1.324-1.216,2.348-2.519,2.624c-1.304,0.276-2.697,0.124-3.941,0.601C288.138,128.221,288.103,128.805,287.942,129.782z"
				/>
			<path style="fill:#FC7F69;" d="M216.378,131.061c-4.111,0.861-8.619-0.493-11.575-3.478c-0.825-0.833-1.547-1.81-1.855-2.941
				c-0.308-1.131-0.143-2.436,0.633-3.315c0.469-0.531,1.116-0.87,1.767-1.147c2.198-0.936,4.636-1.304,7.012-1.058
				c-0.137,1.339,0.566,3.626,0.679,4.967c-0.959-0.006-1.95-0.006-2.831,0.373c-0.881,0.379-1.628,1.244-1.557,2.201
				c0.098,1.329,1.635,2.078,2.967,2.105c1.332,0.027,2.672-0.384,3.983-0.149C215.893,129.565,216.036,130.131,216.378,131.061z"/>
			<path style="fill:#FFA17F;" d="M290.865,90.379c2.793,23.09-4.304,98.045-35.657,94.825
				c-39.319-4.038-45.847-79.193-43.849-93.045C235.419,83.746,263.366,84.6,290.865,90.379z"/>
			<path style="fill:#AA284C;" d="M219.123,85.794c5.2,11.05,28.75,21.201,48.441,10.143c-2.083-1.681-4.126-4.168-6.21-5.849
				c7.851,1.079,16.567,0.451,23.045-4.113C264.657,75.386,238.831,75.14,219.123,85.794z"/>
			<path style="fill:#AA284C;" d="M240.301,115.44c1.597,0.136,2.168,2.149,2.339,3.743c0.065,0.609,0.124,1.256-0.149,1.805
				c-0.477,0.96-1.715,1.197-2.787,1.321c-5.87,0.677-17.287,3.644-18.173,1.797C220.949,118.141,239.93,115.409,240.301,115.44z"/>
			<path style="fill:#AA284C;" d="M265.663,114.103c-1.563,0.352-1.855,2.425-1.807,4.026c0.018,0.612,0.049,1.262,0.394,1.768
				c0.604,0.886,1.862,0.952,2.941,0.928c5.908-0.13,17.623,1.252,18.248-0.698C285.203,114.14,266.027,114.021,265.663,114.103z"/>
			<polygon style="fill:#FC7F69;" points="253.052,129.147 265.188,158.783 254.246,165.612 258.446,157.843 			"/>
			<path style="fill:#3E151B;" d="M244.773,168.968c0,0,11.525,4.789,19.574,0.237C264.347,169.205,253.309,179.969,244.773,168.968
				z"/>
		</g>
		<path style="fill:#3E151B;" d="M241.032,130.745l-0.974,4.405c-0.175,0.791-0.349,1.581-0.524,2.372
			c-0.05,0.226-0.1,0.452-0.15,0.678c-0.116,0.772-0.167,0.907-0.154,0.405c-0.915-0.259-2.079-1.829-2.736-2.479
			c-1.023-1.011-1.984-2.076-2.907-3.178c-0.697-0.832-1.884,0.365-1.192,1.192c1.254,1.496,2.585,2.918,4.022,4.239
			c0.73,0.671,2.147,2.435,3.315,2.22c1.15-0.212,1.232-1.743,1.427-2.628c0.499-2.259,0.998-4.518,1.498-6.777
			C242.891,130.136,241.267,129.685,241.032,130.745z"/>
		<path style="fill:#3E151B;" d="M269.303,130.404l1.807,4.133c0.324,0.742,0.649,1.484,0.973,2.226
			c0.093,0.212,0.185,0.424,0.278,0.636c0.263,0.735,0.34,0.857,0.229,0.367c0.847-0.431,1.686-2.197,2.205-2.962
			c0.808-1.189,1.545-2.421,2.237-3.68c0.523-0.951,1.919-0.006,1.4,0.939c-0.941,1.71-1.971,3.363-3.126,4.937
			c-0.587,0.8-1.635,2.804-2.823,2.819c-1.169,0.015-1.546-1.472-1.909-2.302c-0.927-2.12-1.853-4.239-2.78-6.359
			C267.362,130.166,268.868,129.409,269.303,130.404z"/>
		<path style="fill:#FAB300;" d="M249.025,340.115l-0.678,6.851c-0.268,2.703,1.724,5.106,4.43,5.329
			c4.297,0.354,10.621,0.646,15.65-0.073c2.565-0.366,4.4-2.665,4.174-5.247l-0.632-7.222c-0.219-2.51-2.314-4.44-4.834-4.443
			c-3.727-0.004-9.149,0.067-13.686,0.434C251.113,335.934,249.256,337.782,249.025,340.115z"/>
		<path style="fill:#EBA800;" d="M251.698,341.02l-0.52,5.251c-0.205,2.071,1.321,3.913,3.396,4.084
			c3.293,0.271,8.141,0.495,11.995-0.056c1.966-0.281,3.372-2.043,3.199-4.022l-0.484-5.535c-0.168-1.924-1.774-3.403-3.705-3.405
			c-2.856-0.003-7.012,0.051-10.489,0.333C253.299,337.815,251.875,339.232,251.698,341.02z"/>
		<path style="fill:#301A25;" d="M211.113,381.358c-7.727-6.388-19.708-8.993-29.171-11.694
			c-10.334-2.949-21.792-6.378-32.598-6.551c-1.84-0.029-2.181,2.682-0.43,3.181c10.463,2.984,21.45,4.213,31.971,7.204
			c5.111,1.453,10.181,3.039,15.194,4.802c4.774,1.68,9.409,3.837,14.479,4.399C211.217,382.773,211.619,381.776,211.113,381.358z"
			/>
		<path style="fill:#301A25;" d="M305.634,381.358c7.727-6.388,19.708-8.993,29.171-11.694c10.334-2.949,21.792-6.378,32.598-6.551
			c1.84-0.029,2.181,2.682,0.431,3.181c-10.463,2.984-21.45,4.213-31.972,7.204c-5.11,1.453-10.181,3.039-15.194,4.802
			c-4.774,1.68-9.409,3.837-14.479,4.399C305.53,382.773,305.128,381.776,305.634,381.358z"/>
	</g>
	<path style="fill:#DED6FC;" d="M342.703,96.307c17.499,0.483,35.007,0.65,52.513,0.5c0.129-3.69,0.141-9.369-2.633-11.806
		c-0.763-0.671-1.691-1.273-2.706-1.23c-2.132,0.09-3.18,2.781-5.167,3.559c2.027-7.893-1.069-17.384-7.467-22.431
		c-1.798-1.418-4.129-2.581-6.316-1.901c-2.198,0.683-3.457,2.979-4.15,5.174c-1.734,5.487-1.367,11.553-3.686,16.819
		c-3.397-2.757-7.505-5.205-11.813-5.962c-0.911-0.16-1.875-0.266-2.739,0.065c-0.973,0.372-1.664,1.241-2.207,2.129
		C344.139,84.81,343.157,92.128,342.703,96.307z"/>
	<path style="fill:#DED6FC;" d="M89.174,139.348c26.823,0.741,53.659,0.996,80.491,0.766c0.198-5.656,0.216-14.361-4.035-18.096
		c-1.17-1.028-2.591-1.952-4.147-1.886c-3.268,0.139-4.874,4.262-7.92,5.455c3.107-12.098-1.639-26.647-11.446-34.382
		c-2.756-2.174-6.33-3.957-9.681-2.914c-3.369,1.048-5.299,4.567-6.362,7.931c-2.658,8.41-2.095,17.708-5.65,25.781
		c-5.206-4.226-11.503-7.979-18.107-9.139c-1.396-0.245-2.875-0.408-4.199,0.099c-1.491,0.571-2.55,1.902-3.383,3.264
		C91.375,121.724,89.87,132.941,89.174,139.348z"/>
	<g>
		<path style="fill:#FFFFFF;" d="M74.493,217.376c-4.859,13.434,0.704,30.08,13.052,37.265c7.257,4.223,16.042,5.151,24.396,4.311
			c9.864-0.992,20.224-4.921,25.333-13.417c2.641-4.391,3.623-9.596,3.882-14.714c0.365-7.213-0.68-14.655-4.174-20.976
			C123.597,185.637,83.333,192.939,74.493,217.376z"/>
		<rect x="89.229" y="225.601" style="fill:#AA284C;" width="7.053" height="15.274"/>
		<rect x="103.459" y="215.443" style="fill:#FAB300;" width="7.053" height="25.432"/>
		<rect x="117.688" y="230.776" style="fill:#4F2A3D;" width="7.053" height="10.099"/>
	</g>
	<g>
		<path style="fill:#FFFFFF;" d="M355.945,217.376c-4.859,13.434,0.704,30.08,13.052,37.265c7.257,4.223,16.042,5.151,24.396,4.311
			c9.864-0.992,20.224-4.921,25.333-13.417c2.641-4.391,3.623-9.596,3.882-14.714c0.365-7.213-0.68-14.655-4.174-20.976
			C405.049,185.637,364.785,192.939,355.945,217.376z"/>
		<g>
			<path style="fill:#FAB300;" d="M381.659,222.884c2.91-3.394,7.804-4.934,12.65-2.863c7.537,3.222,10.033,13.794,10.142,20.514
				c0.194,11.997-27.915,11.529-29.154-1.074C374.732,233.699,378.287,226.818,381.659,222.884z"/>
			<path style="fill:#FAB300;" d="M383.04,211.232c-0.368-1.48-0.413-3.447,0.997-3.773c1.079-0.25,2.175,0.704,3.255,1.229
				c2.857,1.386,5.79-0.235,8.512-1.209c1.078-0.385,2.688-0.447,3.222,0.682c0.316,0.667,0.029,1.375-0.258,1.977
				c-1.3,2.728-2.599,5.456-3.899,8.184C389.659,229.258,384.813,218.363,383.04,211.232z"/>
			<path style="fill:#4F2A3D;" d="M394.136,219.538c-0.002,0.001-0.004,0.002-0.005,0.003c-0.052-0.098-0.152-0.169-0.284-0.127
				c-1.213,0.392-2.436,0.687-3.721,0.674c-1.249-0.012-2.468-0.366-3.713-0.398c-0.146-0.004-0.225,0.227-0.079,0.291
				c1.288,0.566,2.676,0.537,4.06,0.577c0.757,0.022,1.51-0.006,2.236-0.156c-0.549,0.285-1.122,0.514-1.813,0.61
				c-1.645,0.229-2.899-0.309-4.371-0.954c-0.2-0.088-0.435,0.15-0.251,0.325c2.104,2.002,6.403,1.923,8.281-0.404
				C394.668,219.743,394.432,219.369,394.136,219.538z"/>
			<path style="fill:#EBA800;" d="M392.468,234.44c-1.392-0.447-4.357,0.394-4.944-1.594c-0.383-1.296,0.785-2.798,2.002-3.136
				c1.763-0.49,2.929,0.824,3.583,2.226c0.474,1.016,2.041,0.288,1.771-0.746c-0.56-2.144-2.246-3.331-4.077-3.625
				c-0.002-0.136-0.016-0.274-0.055-0.414c-0.066-0.232-0.135-0.463-0.2-0.696c-0.072-0.26-0.015-0.007-0.049-0.297
				c-0.068-0.575-0.06-0.993-0.352-1.563c-0.378-0.74-1.495-0.85-2.049-0.264c-0.881,0.93-0.821,2.52-0.574,3.7
				c-1.383,0.673-2.458,1.957-2.63,3.865c-0.215,2.379,1.226,4.408,3.57,4.845c0.973,0.182,1.965-0.036,2.915,0.256
				c1.681,0.515,2.312,2.295,0.488,3.288c-1.764,0.96-3.622-0.015-4.889-1.257c-1.049-1.028-2.852,0.295-2.061,1.59
				c0.933,1.528,2.747,2.43,4.635,2.642c-0.021,0.665,0.028,1.34,0.047,1.986c0.029,1.01,0.887,1.787,1.903,1.65
				c1.065-0.144,1.567-1.099,1.396-2.096c-0.097-0.566-0.167-1.212-0.298-1.834c1.574-0.537,2.842-1.696,3.183-3.551
				C396.184,237.236,394.484,235.088,392.468,234.44z"/>
		</g>
	</g>
</g>
<g id="DESIGNED_BY_FREEPIK">
	<g id="XMLID_1_">
		<g>
			<g id="XMLID_490_">
				<g>
					<g id="XMLID_526_">
						<path id="XMLID_548_" style="fill:#6C2918;" d="M181.073,477.65c-0.246,0-0.434,0.085-0.567,0.255
							c-0.133,0.17-0.199,0.421-0.199,0.754v2.392c-0.305-0.331-0.617-0.579-0.938-0.739c-0.321-0.159-0.715-0.24-1.181-0.24
							c-0.807,0-1.458,0.283-1.953,0.848c-0.495,0.566-0.742,1.356-0.742,2.369c0,0.478,0.063,0.923,0.187,1.335
							c0.125,0.412,0.307,0.77,0.549,1.074c0.241,0.305,0.527,0.539,0.857,0.704c0.331,0.164,0.69,0.246,1.078,0.246
							c0.293,0,0.563-0.04,0.81-0.122c0.247-0.081,0.477-0.2,0.689-0.356c0.212-0.156,0.426-0.359,0.644-0.608v0.161
							c0,0.297,0.072,0.525,0.216,0.686c0.145,0.16,0.328,0.24,0.549,0.24c0.226,0,0.41-0.078,0.552-0.231
							c0.143-0.154,0.214-0.386,0.214-0.694v-7.147c0-0.305-0.066-0.535-0.199-0.691C181.507,477.728,181.319,477.65,181.073,477.65
							z M180.008,484.492c-0.14,0.306-0.328,0.534-0.564,0.682c-0.236,0.149-0.496,0.223-0.781,0.223
							c-0.281,0-0.54-0.079-0.778-0.236c-0.237-0.156-0.424-0.388-0.561-0.697c-0.136-0.309-0.205-0.682-0.205-1.122
							c0-0.416,0.064-0.781,0.193-1.096c0.128-0.315,0.309-0.556,0.543-0.724c0.234-0.168,0.499-0.252,0.796-0.252
							c0.285,0,0.547,0.082,0.786,0.245c0.24,0.165,0.429,0.402,0.57,0.712c0.141,0.311,0.21,0.682,0.21,1.114
							C180.218,483.802,180.148,484.185,180.008,484.492z"/>
						<path id="XMLID_545_" style="fill:#6C2918;" d="M188.44,483.572c0.233-0.121,0.35-0.385,0.35-0.793
							c0-0.438-0.113-0.87-0.338-1.294c-0.225-0.423-0.565-0.768-1.019-1.035c-0.453-0.268-0.996-0.4-1.629-0.4
							c-0.487,0-0.93,0.077-1.33,0.234c-0.4,0.157-0.736,0.381-1.01,0.674c-0.273,0.293-0.48,0.644-0.623,1.054
							c-0.143,0.409-0.213,0.853-0.213,1.332c0,1.017,0.289,1.823,0.866,2.416c0.578,0.593,1.387,0.891,2.428,0.891
							c0.455,0,0.858-0.059,1.208-0.178c0.351-0.119,0.641-0.268,0.873-0.448c0.231-0.18,0.404-0.368,0.52-0.564
							c0.114-0.197,0.172-0.367,0.172-0.513c0-0.167-0.052-0.294-0.155-0.386c-0.102-0.091-0.237-0.137-0.403-0.137
							c-0.155,0-0.274,0.036-0.357,0.107c-0.202,0.19-0.366,0.341-0.493,0.452c-0.127,0.111-0.265,0.216-0.415,0.312
							c-0.151,0.098-0.306,0.168-0.466,0.214c-0.161,0.045-0.338,0.067-0.531,0.067c-0.289,0-0.553-0.07-0.793-0.213
							c-0.239-0.142-0.432-0.354-0.576-0.635c-0.145-0.281-0.219-0.605-0.223-0.973h3.17
							C187.878,483.753,188.206,483.692,188.44,483.572z M184.284,482.833c0.056-0.546,0.213-0.959,0.472-1.238
							c0.259-0.279,0.59-0.418,0.994-0.418c0.424,0,0.764,0.137,1.024,0.413c0.259,0.275,0.409,0.69,0.448,1.244H184.284z"/>
						<path id="XMLID_544_" style="fill:#6C2918;" d="M193.868,483.135c-0.319-0.17-0.729-0.316-1.231-0.44
							c-0.424-0.103-0.756-0.19-0.997-0.261c-0.242-0.071-0.434-0.161-0.576-0.27c-0.142-0.109-0.213-0.248-0.213-0.419
							c0-0.186,0.097-0.341,0.291-0.465c0.194-0.126,0.437-0.187,0.73-0.187c0.285,0,0.511,0.047,0.677,0.142
							c0.167,0.095,0.31,0.222,0.433,0.38c0.15,0.19,0.284,0.332,0.401,0.427c0.117,0.096,0.258,0.144,0.424,0.144
							c0.23,0,0.407-0.061,0.532-0.178c0.124-0.119,0.186-0.272,0.186-0.457c0-0.171-0.058-0.345-0.175-0.523
							c-0.117-0.178-0.287-0.34-0.51-0.486c-0.223-0.146-0.503-0.264-0.837-0.35c-0.334-0.088-0.711-0.131-1.131-0.131
							c-0.534,0-0.99,0.086-1.367,0.259c-0.379,0.172-0.664,0.403-0.859,0.691c-0.194,0.289-0.291,0.596-0.291,0.92
							c0,0.364,0.105,0.671,0.315,0.92c0.21,0.249,0.49,0.45,0.84,0.602c0.35,0.152,0.804,0.298,1.362,0.436
							c0.495,0.119,0.85,0.244,1.066,0.375c0.216,0.131,0.324,0.338,0.324,0.623c0,0.186-0.104,0.351-0.311,0.496
							c-0.208,0.144-0.474,0.217-0.798,0.217c-0.4,0-0.716-0.071-0.947-0.214c-0.232-0.143-0.431-0.358-0.597-0.648
							c-0.082-0.15-0.17-0.267-0.261-0.35c-0.091-0.083-0.221-0.125-0.391-0.125c-0.194,0-0.355,0.064-0.481,0.19
							c-0.127,0.126-0.19,0.278-0.19,0.457c0,0.27,0.099,0.537,0.297,0.805c0.198,0.266,0.505,0.49,0.92,0.667
							c0.416,0.178,0.914,0.267,1.496,0.267c0.609,0,1.127-0.082,1.552-0.246c0.426-0.164,0.747-0.406,0.965-0.725
							c0.218-0.319,0.327-0.702,0.327-1.149c0-0.297-0.082-0.56-0.246-0.792C194.427,483.506,194.186,483.305,193.868,483.135z"/>
						<path id="XMLID_542_" style="fill:#6C2918;" d="M196.476,480.06c-0.238,0-0.431,0.081-0.579,0.243
							c-0.149,0.162-0.222,0.404-0.222,0.724v4.636c0,0.317,0.074,0.56,0.222,0.73c0.148,0.17,0.341,0.255,0.579,0.255
							c0.238,0,0.433-0.083,0.588-0.249c0.154-0.166,0.232-0.412,0.232-0.737v-4.683c0-0.289-0.077-0.515-0.232-0.677
							C196.909,480.141,196.714,480.06,196.476,480.06z"/>
						<path id="XMLID_541_" style="fill:#6C2918;" d="M196.494,477.721c-0.217,0-0.409,0.074-0.573,0.223
							c-0.164,0.149-0.246,0.337-0.246,0.567c0,0.254,0.08,0.45,0.24,0.588c0.16,0.139,0.353,0.208,0.579,0.208
							c0.218,0,0.406-0.071,0.564-0.211c0.158-0.14,0.238-0.335,0.238-0.585c0-0.258-0.081-0.453-0.244-0.588
							C196.889,477.788,196.703,477.721,196.494,477.721z"/>
						<path id="XMLID_538_" style="fill:#6C2918;" d="M203.617,480.06c-0.218,0-0.396,0.078-0.535,0.231
							c-0.139,0.155-0.208,0.372-0.208,0.653v0.22c-0.289-0.376-0.602-0.652-0.938-0.829c-0.337-0.175-0.735-0.264-1.193-0.264
							c-0.384,0-0.736,0.068-1.057,0.204c-0.32,0.137-0.603,0.339-0.849,0.608c-0.245,0.269-0.434,0.599-0.567,0.992
							c-0.132,0.391-0.198,0.831-0.198,1.318c0,0.653,0.108,1.228,0.326,1.727c0.217,0.499,0.529,0.886,0.934,1.163
							c0.406,0.277,0.88,0.416,1.422,0.416c0.451,0,0.84-0.091,1.166-0.273c0.327-0.182,0.614-0.447,0.864-0.796
							c-0.008,0.531-0.02,0.915-0.035,1.155c-0.016,0.24-0.07,0.465-0.163,0.673c-0.093,0.21-0.255,0.374-0.487,0.49
							c-0.232,0.117-0.557,0.175-0.977,0.175c-0.205,0-0.388-0.02-0.546-0.056c-0.158-0.038-0.294-0.095-0.407-0.172
							c-0.112-0.077-0.216-0.17-0.309-0.28c-0.093-0.108-0.183-0.217-0.27-0.324c-0.178-0.209-0.386-0.314-0.624-0.314
							c-0.189,0-0.352,0.062-0.486,0.187c-0.135,0.124-0.202,0.286-0.202,0.483c0,0.261,0.119,0.516,0.357,0.763
							c0.238,0.247,0.576,0.449,1.015,0.605c0.439,0.156,0.938,0.234,1.496,0.234c0.61,0,1.119-0.061,1.529-0.184
							c0.409-0.122,0.741-0.311,0.994-0.564c0.254-0.253,0.438-0.574,0.552-0.961c0.115-0.388,0.173-0.851,0.173-1.39v-4.707
							c0-0.384-0.052-0.678-0.155-0.882C204.137,480.163,203.929,480.06,203.617,480.06z M202.59,484.427
							c-0.151,0.29-0.345,0.508-0.585,0.653c-0.239,0.144-0.493,0.217-0.762,0.217c-0.455,0-0.826-0.168-1.113-0.505
							c-0.287-0.336-0.43-0.833-0.43-1.49c0-0.649,0.139-1.15,0.418-1.501c0.279-0.352,0.649-0.529,1.113-0.529
							c0.475,0,0.858,0.184,1.149,0.552c0.291,0.367,0.436,0.883,0.436,1.543C202.815,483.783,202.74,484.135,202.59,484.427z"/>
						<path id="XMLID_537_" style="fill:#6C2918;" d="M210.97,481.128c-0.165-0.339-0.417-0.603-0.753-0.789
							c-0.337-0.186-0.718-0.28-1.146-0.28c-0.439,0-0.828,0.089-1.166,0.264c-0.339,0.176-0.65,0.452-0.935,0.828v-0.196
							c0-0.194-0.035-0.358-0.104-0.493c-0.069-0.134-0.162-0.234-0.276-0.302c-0.115-0.068-0.244-0.101-0.387-0.101
							c-0.233,0-0.417,0.076-0.552,0.228c-0.135,0.152-0.202,0.383-0.202,0.692v4.683c0,0.317,0.075,0.56,0.225,0.73
							c0.151,0.17,0.342,0.255,0.576,0.255c0.241,0,0.438-0.082,0.59-0.246c0.152-0.164,0.228-0.411,0.228-0.74v-2.03
							c0-0.661,0.04-1.112,0.119-1.353c0.111-0.3,0.285-0.537,0.522-0.71c0.237-0.172,0.501-0.258,0.789-0.258
							c0.444,0,0.739,0.142,0.888,0.425c0.148,0.283,0.223,0.692,0.223,1.226v2.701c0,0.317,0.075,0.56,0.226,0.73
							c0.15,0.17,0.346,0.255,0.588,0.255c0.237,0,0.43-0.083,0.578-0.249c0.149-0.166,0.223-0.412,0.223-0.737v-3.015
							c0-0.357-0.016-0.649-0.048-0.879C211.147,481.541,211.078,481.327,210.97,481.128z"/>
						<path id="XMLID_534_" style="fill:#6C2918;" d="M217.815,483.572c0.234-0.121,0.35-0.385,0.35-0.793
							c0-0.438-0.113-0.87-0.338-1.294c-0.226-0.423-0.565-0.768-1.019-1.035c-0.453-0.268-0.996-0.4-1.629-0.4
							c-0.487,0-0.93,0.077-1.33,0.234c-0.4,0.157-0.736,0.381-1.009,0.674c-0.273,0.293-0.481,0.644-0.624,1.054
							c-0.142,0.409-0.214,0.853-0.214,1.332c0,1.017,0.289,1.823,0.866,2.416c0.578,0.593,1.388,0.891,2.428,0.891
							c0.455,0,0.858-0.059,1.208-0.178c0.35-0.119,0.641-0.268,0.872-0.448c0.232-0.18,0.405-0.368,0.52-0.564
							c0.115-0.197,0.172-0.367,0.172-0.513c0-0.167-0.051-0.294-0.154-0.386c-0.103-0.091-0.238-0.137-0.404-0.137
							c-0.154,0-0.273,0.036-0.356,0.107c-0.202,0.19-0.366,0.341-0.492,0.452c-0.128,0.111-0.266,0.216-0.416,0.312
							c-0.151,0.098-0.306,0.168-0.466,0.214c-0.161,0.045-0.338,0.067-0.532,0.067c-0.289,0-0.553-0.07-0.792-0.213
							c-0.24-0.142-0.432-0.354-0.576-0.635c-0.145-0.281-0.218-0.605-0.223-0.973h3.169
							C217.253,483.753,217.581,483.692,217.815,483.572z M213.659,482.833c0.055-0.546,0.212-0.959,0.471-1.238
							c0.259-0.279,0.591-0.418,0.995-0.418c0.423,0,0.765,0.137,1.024,0.413c0.259,0.275,0.409,0.69,0.448,1.244H213.659z"/>
						<path id="XMLID_531_" style="fill:#6C2918;" d="M224.201,477.65c-0.245,0-0.435,0.085-0.567,0.255
							c-0.133,0.17-0.199,0.421-0.199,0.754v2.392c-0.304-0.331-0.617-0.579-0.938-0.739c-0.32-0.159-0.714-0.24-1.181-0.24
							c-0.807,0-1.458,0.283-1.953,0.848c-0.495,0.566-0.742,1.356-0.742,2.369c0,0.478,0.062,0.923,0.187,1.335
							c0.124,0.412,0.307,0.77,0.549,1.074c0.242,0.305,0.527,0.539,0.858,0.704c0.33,0.164,0.689,0.246,1.077,0.246
							c0.293,0,0.563-0.04,0.81-0.122c0.247-0.081,0.477-0.2,0.688-0.356c0.212-0.156,0.426-0.359,0.644-0.608v0.161
							c0,0.297,0.072,0.525,0.217,0.686c0.145,0.16,0.328,0.24,0.549,0.24c0.226,0,0.41-0.078,0.552-0.231
							c0.143-0.154,0.214-0.386,0.214-0.694v-7.147c0-0.305-0.066-0.535-0.199-0.691C224.635,477.728,224.446,477.65,224.201,477.65
							z M223.135,484.492c-0.14,0.306-0.328,0.534-0.564,0.682c-0.235,0.149-0.495,0.223-0.781,0.223
							c-0.281,0-0.54-0.079-0.777-0.236c-0.238-0.156-0.425-0.388-0.562-0.697c-0.137-0.309-0.204-0.682-0.204-1.122
							c0-0.416,0.064-0.781,0.193-1.096c0.129-0.315,0.31-0.556,0.543-0.724c0.233-0.168,0.499-0.252,0.795-0.252
							c0.285,0,0.547,0.082,0.787,0.245c0.24,0.165,0.43,0.402,0.57,0.712c0.141,0.311,0.211,0.682,0.211,1.114
							C223.346,483.802,223.276,484.185,223.135,484.492z"/>
						<path id="XMLID_528_" style="fill:#6C2918;" d="M233.582,480.454c-0.406-0.255-0.878-0.382-1.416-0.382
							c-0.467,0-0.859,0.084-1.176,0.252c-0.317,0.168-0.627,0.411-0.932,0.727v-2.475c0-0.297-0.067-0.525-0.202-0.686
							c-0.135-0.16-0.326-0.24-0.576-0.24c-0.237,0-0.423,0.084-0.555,0.252c-0.132,0.168-0.198,0.416-0.198,0.745v7.077
							c0,0.305,0.068,0.535,0.205,0.692c0.136,0.156,0.32,0.234,0.549,0.234c0.226,0,0.412-0.078,0.558-0.234
							c0.146-0.157,0.22-0.388,0.22-0.692v-0.161c0.178,0.206,0.322,0.361,0.431,0.463c0.109,0.103,0.241,0.203,0.395,0.3
							c0.154,0.098,0.341,0.175,0.561,0.234c0.219,0.06,0.454,0.089,0.703,0.089c0.407,0,0.78-0.082,1.119-0.246
							c0.338-0.164,0.626-0.397,0.864-0.698c0.237-0.3,0.418-0.656,0.543-1.065c0.124-0.41,0.187-0.859,0.187-1.35
							c0-0.665-0.112-1.241-0.336-1.725C234.302,481.081,233.987,480.711,233.582,480.454z M232.792,484.866
							c-0.294,0.355-0.646,0.532-1.053,0.532c-0.479,0-0.866-0.174-1.161-0.521c-0.295-0.346-0.442-0.841-0.442-1.486
							c0-0.439,0.069-0.819,0.208-1.137c0.139-0.319,0.329-0.562,0.57-0.73c0.241-0.168,0.517-0.252,0.825-0.252
							c0.301,0,0.564,0.084,0.79,0.252c0.225,0.168,0.399,0.406,0.522,0.715c0.123,0.308,0.184,0.677,0.184,1.104
							C233.235,484.004,233.087,484.511,232.792,484.866z"/>
						<path id="XMLID_527_" style="fill:#6C2918;" d="M240.527,480.158c-0.113-0.066-0.23-0.098-0.353-0.098
							c-0.17,0-0.302,0.03-0.395,0.09c-0.093,0.059-0.181,0.173-0.264,0.344c-0.083,0.17-0.176,0.407-0.279,0.706l-1.3,3.71
							l-1.371-3.989c-0.091-0.277-0.195-0.489-0.314-0.638c-0.119-0.148-0.296-0.223-0.529-0.223c-0.135,0-0.264,0.035-0.389,0.107
							c-0.124,0.071-0.222,0.166-0.294,0.285c-0.071,0.118-0.107,0.247-0.107,0.385c0,0.131,0.062,0.341,0.184,0.629l1.995,5.022
							l-0.148,0.363c-0.111,0.265-0.209,0.466-0.294,0.602c-0.085,0.137-0.181,0.233-0.288,0.288
							c-0.107,0.056-0.254,0.084-0.44,0.084c-0.075,0-0.164-0.012-0.267-0.036c-0.083-0.024-0.168-0.037-0.256-0.037
							c-0.221,0-0.388,0.051-0.501,0.152c-0.113,0.101-0.169,0.245-0.169,0.43c0,0.273,0.118,0.461,0.356,0.564
							c0.237,0.103,0.593,0.154,1.068,0.154c0.487,0,0.874-0.074,1.161-0.223c0.287-0.148,0.517-0.361,0.691-0.638
							c0.174-0.277,0.352-0.659,0.535-1.145l2.113-5.533c0.051-0.142,0.094-0.283,0.13-0.421c0.036-0.139,0.061-0.246,0.077-0.321
							c0-0.123-0.031-0.239-0.092-0.35C240.727,480.311,240.64,480.224,240.527,480.158z"/>
					</g>
					<g id="XMLID_505_">
						<path id="XMLID_525_" style="fill:#6C2918;" d="M262.932,477.646c-0.534,0-0.954,0.068-1.26,0.204
							c-0.307,0.137-0.527,0.354-0.654,0.653c-0.129,0.3-0.192,0.702-0.192,1.211v0.487h-0.386c-0.543,0-0.815,0.192-0.815,0.582
							c0,0.174,0.066,0.317,0.196,0.424c0.132,0.111,0.316,0.164,0.559,0.164h0.446v4.294c0,0.319,0.075,0.563,0.228,0.73
							c0.154,0.17,0.344,0.254,0.574,0.254c0.243,0,0.438-0.084,0.589-0.254c0.156-0.167,0.231-0.411,0.231-0.73v-4.294h0.395
							c0.291,0,0.517-0.035,0.681-0.107c0.166-0.071,0.245-0.241,0.245-0.503c0-0.374-0.306-0.56-0.926-0.56h-0.395v-0.386
							c0-0.322,0.043-0.568,0.122-0.74c0.087-0.172,0.273-0.259,0.566-0.259c0.107,0,0.241,0.014,0.389,0.035
							c0.156,0.026,0.267,0.037,0.33,0.037c0.134,0,0.252-0.054,0.348-0.16c0.101-0.107,0.15-0.236,0.15-0.384
							C264.352,477.875,263.882,477.646,262.932,477.646z"/>
						<path id="XMLID_524_" style="fill:#6C2918;" d="M268.093,480.312c-0.32-0.171-0.648-0.255-0.991-0.255
							c-0.342,0-0.611,0.084-0.819,0.255c-0.203,0.171-0.4,0.421-0.593,0.755c-0.014-0.334-0.08-0.584-0.198-0.755
							c-0.119-0.171-0.313-0.255-0.583-0.255c-0.526,0-0.788,0.364-0.788,1.093v4.514c0,0.323,0.077,0.569,0.225,0.734
							c0.15,0.169,0.341,0.25,0.579,0.25c0.237,0,0.432-0.081,0.586-0.247c0.151-0.163,0.234-0.41,0.234-0.737v-1.355
							c0-0.487,0.014-0.9,0.045-1.238c0.034-0.337,0.09-0.631,0.17-0.878c0.083-0.243,0.201-0.426,0.353-0.554
							c0.15-0.122,0.345-0.186,0.582-0.186c0.172,0,0.374,0.037,0.602,0.108c0.226,0.073,0.371,0.112,0.433,0.112
							c0.158,0,0.304-0.064,0.441-0.195c0.135-0.126,0.204-0.292,0.204-0.488C268.575,480.71,268.415,480.483,268.093,480.312z"/>
						<path id="XMLID_521_" style="fill:#6C2918;" d="M274.18,483.57c0.233-0.122,0.351-0.386,0.351-0.791
							c0-0.441-0.113-0.871-0.339-1.296c-0.222-0.424-0.566-0.77-1.018-1.034c-0.453-0.27-0.997-0.403-1.629-0.403
							c-0.488,0-0.931,0.078-1.33,0.234c-0.402,0.156-0.736,0.38-1.008,0.674c-0.276,0.295-0.484,0.643-0.624,1.055
							c-0.144,0.41-0.217,0.855-0.217,1.334c0,1.016,0.292,1.823,0.87,2.418c0.577,0.593,1.385,0.889,2.429,0.889
							c0.453,0,0.858-0.06,1.207-0.179c0.349-0.117,0.64-0.268,0.874-0.446c0.233-0.181,0.405-0.368,0.522-0.566
							c0.112-0.195,0.167-0.365,0.167-0.512c0-0.167-0.048-0.294-0.152-0.386c-0.105-0.092-0.238-0.138-0.406-0.138
							c-0.153,0-0.271,0.038-0.355,0.109c-0.202,0.189-0.367,0.34-0.494,0.449c-0.128,0.113-0.264,0.217-0.415,0.313
							c-0.15,0.097-0.307,0.17-0.466,0.213c-0.16,0.049-0.337,0.069-0.531,0.069c-0.29,0-0.552-0.07-0.793-0.212
							c-0.24-0.144-0.431-0.357-0.578-0.635c-0.144-0.28-0.216-0.607-0.221-0.974h3.171
							C273.619,483.751,273.947,483.691,274.18,483.57z M270.024,482.83c0.054-0.546,0.213-0.957,0.472-1.236
							c0.259-0.281,0.591-0.418,0.995-0.418c0.426,0,0.764,0.136,1.025,0.413c0.26,0.273,0.407,0.688,0.446,1.241H270.024z"/>
						<path id="XMLID_518_" style="fill:#6C2918;" d="M279.919,480.449c-0.46-0.27-1.003-0.403-1.633-0.403
							c-0.487,0-0.932,0.078-1.331,0.234c-0.401,0.156-0.737,0.38-1.009,0.674c-0.273,0.295-0.481,0.643-0.622,1.055
							c-0.145,0.41-0.217,0.855-0.217,1.334c0,1.016,0.291,1.823,0.868,2.418c0.58,0.593,1.387,0.889,2.429,0.889
							c0.454,0,0.861-0.06,1.209-0.179c0.347-0.117,0.641-0.268,0.872-0.446c0.234-0.181,0.408-0.368,0.519-0.566
							c0.117-0.195,0.171-0.365,0.171-0.512c0-0.167-0.047-0.294-0.15-0.386c-0.104-0.092-0.239-0.138-0.406-0.138
							c-0.151,0-0.271,0.038-0.355,0.109c-0.203,0.189-0.368,0.34-0.493,0.449c-0.128,0.113-0.264,0.217-0.415,0.313
							c-0.153,0.097-0.307,0.17-0.469,0.213c-0.158,0.049-0.336,0.069-0.528,0.069c-0.291,0-0.555-0.07-0.795-0.212
							c-0.239-0.144-0.431-0.357-0.576-0.635c-0.143-0.28-0.218-0.607-0.222-0.974h3.171c0.422,0,0.75-0.06,0.984-0.181
							c0.231-0.122,0.351-0.386,0.351-0.791c0-0.441-0.116-0.871-0.341-1.296C280.71,481.059,280.369,480.713,279.919,480.449z
							 M276.767,482.83c0.053-0.546,0.211-0.957,0.469-1.236c0.261-0.281,0.592-0.418,0.996-0.418c0.426,0,0.764,0.136,1.027,0.413
							c0.257,0.273,0.407,0.688,0.447,1.241H276.767z"/>
						<path id="XMLID_515_" style="fill:#6C2918;" d="M286.934,480.454c-0.42-0.256-0.883-0.386-1.38-0.386
							c-0.415,0-0.79,0.089-1.114,0.267c-0.331,0.176-0.649,0.452-0.953,0.828v-0.194c0-0.297-0.071-0.519-0.218-0.678
							c-0.143-0.156-0.329-0.234-0.56-0.234c-0.233,0-0.419,0.078-0.553,0.228c-0.134,0.155-0.2,0.383-0.2,0.692v6.996
							c0,0.355,0.051,0.62,0.146,0.807c0.102,0.183,0.301,0.275,0.607,0.275c0.518,0,0.778-0.359,0.778-1.069v-2.433
							c0.287,0.358,0.587,0.633,0.901,0.816c0.313,0.187,0.704,0.279,1.166,0.279c0.385,0,0.741-0.076,1.08-0.227
							c0.334-0.153,0.622-0.372,0.868-0.654c0.245-0.283,0.441-0.632,0.58-1.05c0.14-0.419,0.21-0.878,0.21-1.376
							c0-0.677-0.123-1.262-0.366-1.758C287.682,481.089,287.353,480.713,286.934,480.454z M286.457,484.458
							c-0.137,0.313-0.32,0.546-0.552,0.704c-0.229,0.154-0.48,0.233-0.748,0.233c-0.454,0-0.828-0.178-1.133-0.537
							c-0.307-0.358-0.46-0.862-0.46-1.504c0-0.686,0.154-1.204,0.462-1.558c0.306-0.35,0.684-0.527,1.13-0.527
							c0.281,0,0.541,0.084,0.77,0.248c0.229,0.163,0.411,0.397,0.541,0.705c0.13,0.306,0.197,0.674,0.197,1.102
							C286.665,483.766,286.595,484.145,286.457,484.458z"/>
						<path id="XMLID_514_" style="fill:#6C2918;" d="M289.908,480.057c-0.238,0-0.428,0.079-0.58,0.245
							c-0.146,0.162-0.222,0.403-0.222,0.721v4.642c0,0.313,0.076,0.556,0.222,0.729c0.152,0.17,0.342,0.254,0.58,0.254
							c0.238,0,0.432-0.082,0.588-0.25c0.154-0.165,0.231-0.41,0.231-0.732v-4.689c0-0.286-0.077-0.513-0.231-0.675
							C290.34,480.136,290.146,480.057,289.908,480.057z"/>
						<path id="XMLID_513_" style="fill:#6C2918;" d="M289.925,477.717c-0.217,0-0.408,0.076-0.571,0.222
							c-0.166,0.15-0.248,0.339-0.248,0.569c0,0.253,0.08,0.446,0.242,0.585c0.159,0.138,0.35,0.209,0.577,0.209
							c0.22,0,0.408-0.071,0.566-0.21c0.157-0.14,0.236-0.335,0.236-0.585c0-0.258-0.082-0.455-0.244-0.591
							C290.322,477.784,290.137,477.717,289.925,477.717z"/>
						<path id="XMLID_512_" style="fill:#6C2918;" d="M297.267,485.087l-1.662-2.614l0.861-0.789
							c0.438-0.396,0.659-0.714,0.659-0.951c0-0.192-0.068-0.355-0.2-0.483c-0.139-0.128-0.306-0.193-0.51-0.193
							c-0.169,0-0.313,0.043-0.431,0.13c-0.121,0.086-0.29,0.251-0.517,0.486l-1.823,1.914v-3.933c0-0.33-0.074-0.582-0.221-0.751
							c-0.148-0.172-0.344-0.257-0.593-0.257c-0.255,0-0.456,0.092-0.596,0.283c-0.135,0.189-0.207,0.463-0.207,0.821v6.915
							c0,0.323,0.073,0.569,0.215,0.734c0.141,0.169,0.339,0.25,0.588,0.25c0.213,0,0.406-0.084,0.566-0.254
							c0.165-0.167,0.248-0.406,0.248-0.718v-1.291l0.88-0.83l1.428,2.354c0.181,0.278,0.33,0.472,0.436,0.58
							c0.106,0.109,0.261,0.16,0.458,0.16c0.226,0,0.413-0.073,0.554-0.221c0.141-0.151,0.213-0.352,0.213-0.61
							c0-0.089-0.029-0.189-0.081-0.289C297.479,485.427,297.388,485.284,297.267,485.087z"/>
						<path id="XMLID_511_" style="fill:#6C2918;" d="M299.459,484.861c-0.25,0-0.458,0.087-0.63,0.262
							c-0.17,0.173-0.256,0.381-0.256,0.622c0,0.287,0.09,0.51,0.268,0.665c0.179,0.159,0.389,0.238,0.634,0.238
							c0.237,0,0.444-0.079,0.624-0.241c0.174-0.158,0.264-0.38,0.264-0.662c0-0.243-0.089-0.454-0.264-0.626
							C299.919,484.948,299.708,484.861,299.459,484.861z"/>
						<path id="XMLID_510_" style="fill:#6C2918;" d="M306.846,483.935c-0.167,0-0.308,0.054-0.422,0.156
							c-0.113,0.104-0.219,0.245-0.318,0.427c-0.178,0.31-0.382,0.538-0.617,0.689c-0.231,0.15-0.51,0.225-0.835,0.225
							c-0.239,0-0.462-0.045-0.665-0.141c-0.201-0.093-0.372-0.23-0.516-0.409c-0.144-0.18-0.252-0.398-0.325-0.653
							c-0.075-0.255-0.114-0.537-0.114-0.842c0-0.646,0.147-1.161,0.44-1.534c0.293-0.375,0.682-0.561,1.158-0.561
							c0.333,0,0.607,0.074,0.821,0.226c0.219,0.148,0.424,0.375,0.622,0.674c0.109,0.158,0.209,0.269,0.299,0.339
							c0.09,0.068,0.201,0.104,0.338,0.104c0.202,0,0.377-0.068,0.524-0.203c0.144-0.135,0.214-0.3,0.214-0.492
							c0-0.192-0.063-0.397-0.192-0.617c-0.128-0.218-0.314-0.424-0.556-0.62c-0.245-0.192-0.54-0.352-0.891-0.474
							c-0.353-0.123-0.737-0.184-1.158-0.184c-0.674,0-1.259,0.138-1.746,0.419c-0.486,0.279-0.859,0.674-1.113,1.184
							c-0.259,0.511-0.387,1.098-0.387,1.765c0,0.981-2.508,0.864-1.948,1.448c0.562,0.582,4.134,1.777,5.138,1.777
							c0.469,0,0.894-0.065,1.269-0.192c0.377-0.126,0.688-0.295,0.934-0.502c0.248-0.208,0.434-0.425,0.554-0.656
							c0.121-0.229,0.182-0.446,0.182-0.646c0-0.169-0.066-0.331-0.198-0.481C307.209,484.011,307.044,483.935,306.846,483.935z"/>
						<path id="XMLID_507_" style="fill:#6C2918;" d="M313.659,480.97c-0.288-0.29-0.629-0.517-1.027-0.674
							c-0.4-0.16-0.847-0.239-1.337-0.239c-0.482,0-0.923,0.078-1.326,0.234c-0.398,0.158-0.737,0.38-1.019,0.669
							c-0.281,0.288-0.498,0.637-0.649,1.046c-0.147,0.408-0.224,0.858-0.224,1.349c0,0.485,0.076,0.93,0.219,1.332
							c0.152,0.402,0.369,0.75,0.657,1.048c0.284,0.292,0.627,0.521,1.016,0.676c0.392,0.159,0.835,0.239,1.326,0.239
							c0.493,0,0.937-0.08,1.337-0.234c0.394-0.157,0.735-0.382,1.02-0.675c0.286-0.291,0.502-0.641,0.656-1.049
							c0.146-0.409,0.222-0.856,0.222-1.337c0-0.489-0.075-0.932-0.221-1.339C314.161,481.613,313.945,481.267,313.659,480.97z
							 M312.466,484.887c-0.289,0.372-0.681,0.557-1.171,0.557c-0.323,0-0.604-0.086-0.845-0.253
							c-0.24-0.168-0.423-0.41-0.553-0.729c-0.129-0.316-0.193-0.684-0.193-1.108c0-0.428,0.066-0.803,0.197-1.124
							c0.13-0.322,0.314-0.564,0.556-0.728c0.242-0.164,0.522-0.246,0.839-0.246c0.49,0,0.882,0.182,1.171,0.555
							c0.29,0.367,0.436,0.881,0.436,1.543C312.903,484.005,312.756,484.517,312.466,484.887z"/>
						<path id="XMLID_506_" style="fill:#6C2918;" d="M323.583,480.33c-0.32-0.173-0.705-0.262-1.146-0.262
							c-0.381,0-0.726,0.081-1.039,0.241c-0.313,0.161-0.607,0.408-0.881,0.738c-0.192-0.326-0.431-0.572-0.725-0.735
							c-0.292-0.162-0.641-0.244-1.049-0.244c-0.394,0-0.748,0.079-1.07,0.241c-0.319,0.156-0.62,0.404-0.903,0.738v-0.153
							c0-0.261-0.074-0.466-0.221-0.615c-0.15-0.145-0.335-0.222-0.557-0.222c-0.227,0-0.413,0.078-0.556,0.239
							c-0.14,0.157-0.209,0.389-0.209,0.695v4.637c0,0.336,0.078,0.591,0.235,0.765c0.156,0.171,0.357,0.258,0.604,0.258
							c0.248,0,0.447-0.087,0.603-0.258c0.15-0.173,0.226-0.428,0.226-0.765v-2.189c0-0.684,0.087-1.207,0.254-1.567
							c0.169-0.369,0.516-0.55,1.048-0.55c0.264,0,0.459,0.073,0.582,0.22c0.122,0.142,0.198,0.331,0.227,0.552
							c0.027,0.226,0.04,0.544,0.04,0.953v2.582c0,0.342,0.078,0.594,0.233,0.767c0.148,0.17,0.349,0.255,0.594,0.255
							c0.254,0,0.455-0.085,0.611-0.255c0.156-0.173,0.231-0.425,0.231-0.767v-2.154c0-0.694,0.062-1.178,0.178-1.452
							c0.109-0.21,0.259-0.384,0.45-0.508c0.192-0.126,0.395-0.192,0.609-0.192c0.264,0,0.463,0.073,0.596,0.215
							c0.129,0.142,0.21,0.319,0.239,0.529c0.029,0.209,0.043,0.487,0.043,0.836v2.726c0,0.336,0.079,0.591,0.235,0.765
							c0.157,0.171,0.356,0.258,0.603,0.258c0.253,0,0.458-0.085,0.612-0.255c0.153-0.173,0.229-0.425,0.229-0.767v-3.164
							c0-0.629-0.068-1.09-0.206-1.385C324.141,480.755,323.902,480.504,323.583,480.33z"/>
					</g>
					<g id="XMLID_491_">
						<path id="XMLID_504_" style="fill:#6C2918;" d="M245.272,482.962c-0.001-0.003-0.001-0.006-0.001-0.011
							C245.271,482.956,245.271,482.958,245.272,482.962z"/>
						<path id="XMLID_503_" style="fill:#6C2918;" d="M245.354,483.48c0.001,0,0.001,0,0.001,0
							c-0.031-0.148-0.055-0.294-0.074-0.439C245.3,483.187,245.324,483.334,245.354,483.48z"/>
						<path id="XMLID_502_" style="fill:#6C2918;" d="M245.89,484.984c-0.004-0.006-0.007-0.013-0.011-0.021
							C245.883,484.97,245.886,484.978,245.89,484.984z"/>
						<path id="XMLID_501_" style="fill:#6C2918;" d="M245.839,484.884c-0.014-0.027-0.027-0.056-0.041-0.084
							C245.811,484.829,245.825,484.856,245.839,484.884z"/>
						<path id="XMLID_500_" style="fill:#6C2918;" d="M245.504,484.059c0.079,0.25,0.175,0.493,0.286,0.724
							c-0.113-0.236-0.206-0.479-0.283-0.724H245.504z"/>
						<path id="XMLID_499_" style="fill:#6C2918;" d="M250.736,476.198l-0.076-0.259c0.299-0.063,0.524-0.329,0.524-0.646
							c0-0.364-0.296-0.659-0.661-0.659c-0.364,0-0.66,0.295-0.66,0.659c0,0.317,0.224,0.583,0.523,0.646l0.084,0.289
							c-1.021,0.14-1.834,0.539-1.834,0.539l0.144,0.441c0.618-0.206,1.154-0.331,1.64-0.383c0.476-0.051,0.834-0.073,1.127-0.073
							c0.313,0,0.544,0.025,0.809,0.07l0.075-0.477C252.43,476.344,251.698,476.119,250.736,476.198z"/>
						<path id="XMLID_498_" style="fill:#6C2918;" d="M245.452,478.705c-0.017,0.024-0.497,0.465-0.876,1.28
							c-0.016-0.026-0.035-0.051-0.056-0.074c-0.114-0.124-0.272-0.187-0.474-0.184c-0.003,0-0.006,0-0.009,0
							c-0.125,0-0.21-0.042-0.267-0.092c0.056-0.071,0.089-0.16,0.089-0.258c0-0.23-0.187-0.418-0.418-0.418
							c-0.23,0-0.418,0.188-0.418,0.418c0,0.231,0.187,0.418,0.418,0.418c0.036,0,0.071-0.006,0.104-0.013
							c0.103,0.114,0.266,0.214,0.505,0.209c0.123-0.001,0.213,0.031,0.273,0.097c0.069,0.076,0.093,0.185,0.1,0.267
							c-0.001,0.001-0.001,0.003-0.002,0.003c-0.272,0.743-0.194,1.669-0.194,1.669l0.661,0.026
							c0.013-0.337,0.062-0.926,0.232-1.394c0.329-0.906,0.741-1.472,0.758-1.496l0.004-0.005c0.024-0.031,0.047-0.06,0.071-0.089
							l-0.196-0.141L245.452,478.705z"/>
						<path id="XMLID_497_" style="fill:#6C2918;" d="M257.295,477.304c-0.23,0-0.418,0.187-0.418,0.418
							c0,0.036,0.006,0.07,0.015,0.103c-0.115,0.104-0.214,0.267-0.211,0.507c0.002,0.123-0.03,0.212-0.096,0.273
							c-0.053,0.047-0.12,0.072-0.185,0.088c-0.492-0.689-1.097-1.109-1.097-1.109l-0.474,0.508c0.358,0.326,0.725,0.734,1.08,1.244
							c0.246,0.352,0.499,0.806,0.71,1.259l0.64-0.304c0,0-0.292-0.722-0.704-1.37c0.071-0.025,0.143-0.064,0.207-0.12
							c0.125-0.113,0.187-0.273,0.183-0.474c-0.001-0.13,0.042-0.218,0.093-0.276c0.071,0.054,0.16,0.089,0.258,0.089
							c0.232,0,0.419-0.187,0.419-0.418C257.714,477.49,257.527,477.304,257.295,477.304z"/>
						<path id="XMLID_496_" style="fill:#6C2918;" d="M255.634,483.055c-0.881,0.429-2.33,0.996-4.238,1.262
							c-0.749,0.104-1.475,0.142-2.143,0.142c-0.869,0-1.637-0.065-2.227-0.139c-0.673-0.085-1.198-0.188-1.52-0.261
							c0.077,0.245,0.171,0.488,0.283,0.724c0.002,0.006,0.005,0.013,0.008,0.017c0.013,0.028,0.027,0.056,0.041,0.084
							c0.013,0.027,0.027,0.054,0.041,0.079c0.004,0.007,0.007,0.015,0.011,0.021c0.189,0.357,0.417,0.684,0.675,0.968
							c0.9,0.984,1.817,1.14,1.826,1.141l0.014,0.002l0.013,0.005c0.008,0.003,0.821,0.266,2.057,0.266
							c1.216,0,2.409-0.245,3.546-0.729c0.842-0.431,1.639-1.085,2.034-1.669c0.305-0.452,0.526-0.933,0.656-1.434
							c0.07-0.266,0.124-0.692,0.092-1.141C256.556,482.559,256.164,482.797,255.634,483.055z"/>
						<path id="XMLID_492_" style="fill:#6C2918;" d="M252.322,477.172c-0.265-0.043-0.477-0.068-0.777-0.068
							c-0.28,0-0.626,0.023-1.09,0.071c-0.464,0.048-0.982,0.17-1.583,0.372c-0.842,0.282-1.605,0.724-2.204,1.28l-0.02,0.019
							c-0.089,0.082-0.274,0.254-0.488,0.525c-0.026,0.037-0.408,0.578-0.71,1.408c-0.226,0.622-0.216,1.527-0.216,1.538v0.002
							c0,0.212,0.012,0.423,0.035,0.632c0,0.005,0,0.008,0.001,0.011c0.002,0.027,0.007,0.052,0.009,0.079
							c0.019,0.145,0.043,0.291,0.074,0.439c0.438,0.111,3.049,0.72,5.968,0.314c1.829-0.255,3.218-0.795,4.062-1.204
							c0.701-0.34,1.151-0.648,1.325-0.774c-0.173-0.643-0.651-1.65-1.089-2.279C254.368,477.746,253.016,477.286,252.322,477.172z
							 M248.678,482.431c-0.972,0-1.76-0.787-1.76-1.759c0-0.972,0.788-1.761,1.76-1.761c0.973,0,1.761,0.789,1.761,1.761
							C250.439,481.645,249.651,482.431,248.678,482.431z M253.829,481.134c-0.601,0-1.089-0.489-1.089-1.09
							c0-0.601,0.488-1.089,1.089-1.089c0.601,0,1.09,0.488,1.09,1.089C254.919,480.645,254.43,481.134,253.829,481.134z"/>
					</g>
				</g>
			</g>
		</g>
	</g>
</g>
</svg>
