<?xml version="1.0" encoding="utf-8"?>
<!-- Generator: Adobe Illustrator 27.5.0, SVG Export Plug-In . SVG Version: 6.00 Build 0)  -->
<svg version="1.1" xmlns="http://www.w3.org/2000/svg" xmlns:xlink="http://www.w3.org/1999/xlink" x="0px" y="0px"
	 viewBox="0 0 500 500" style="enable-background:new 0 0 500 500;" xml:space="preserve">
<g>
	<path style="fill:#2A75C7;" d="M229.498,430.015c2.271-2.696,5.67-4.567,8.927-6.114c1.437-0.682,4.426-1.439,6-1.79
		c4.524-1.004,8.411,0.307,12.493,2.232c2.541,1.2,4.978,3.221,6.855,5.646c1.977,5.146,2.48,10.499,0.988,15.792
		c-4.344,11.698-19.626,17.604-30.964,10.435c-7.322-6.603-8.931-15.361-6.404-23.149
		C228.005,431.987,228.7,430.962,229.498,430.015z"/>
	<path style="fill:#8CA9F5;" d="M240.967,426.707c-6.856,2.12-11.82,8.843-9.083,16.072c2.544,6.713,9.021,9.475,16.064,7.019
		c6.779-2.366,12.057-8.226,9.735-15.826c-0.772-2.525-2.163-5.537-5.407-6.892C248.667,425.577,244.774,425.528,240.967,426.707z"
		/>
	<path style="fill:#5C82E6;" d="M240.331,423.974c4.461-1.381,8.938-1.23,12.942,0.44c4.622,1.927,6.057,6.62,6.528,8.163
		l0.069,0.233c2.593,8.979-3.79,15.628-11.27,18.236c-8.289,2.893-15.847-0.417-18.809-8.235c-0.141-0.37-0.263-0.739-0.37-1.107
		l0,0C227.042,433.454,233.098,426.211,240.331,423.974z M256.822,433.481c-1.021-3.348-2.554-5.35-4.816-6.293
		c-3.315-1.383-7.044-1.5-10.782-0.344c-5.97,1.846-11.474,7.884-8.167,14.662c2.51,5.144,7.79,8.015,14.46,5.688
		c5.649-1.973,10.18-6.818,9.363-13.52L256.822,433.481z"/>
	<path style="fill:#5C82E6;" d="M267.236,438.116c-0.117-1.336-0.473-2.668-1.004-3.957c-0.603-1.47-1.455-2.875-2.459-4.171
		c1.977,5.146,2.48,10.499,0.988,15.792c-4.344,11.698-19.626,17.604-30.964,10.435c-7.322-6.603-8.931-15.361-6.404-23.149
		c-3.805,6.711-3.939,15.613,0.407,22.455c3.941,6.205,10.292,9.891,17.156,9.891C269.527,465.411,269.121,445.319,267.236,438.116z
		"/>
</g>
<g>
	<path style="fill:#C7762A;" d="M108.163,435.066c2.487-0.016,5.047,0.953,7.368,1.993c1.023,0.459,2.798,1.718,3.707,2.402
		c2.61,1.968,3.685,4.654,4.52,7.728c0.519,1.913,0.55,4.146,0.107,6.264c-1.858,3.416-4.501,6.137-8.025,7.759
		c-8.268,3.022-18.433-2.477-19.774-11.845c0.193-6.953,4.158-11.825,9.495-14.033C106.42,435.168,107.289,435.072,108.163,435.066z
		"/>
	<path style="fill:#F5C78C;" d="M115.188,439.709c-4.276-2.71-10.157-2.298-12.785,2.481c-2.439,4.438-0.957,9.179,3.585,11.835
		c4.373,2.556,9.934,2.706,12.951-2.019c1.002-1.57,1.982-3.695,1.224-6.058C119.319,443.326,117.563,441.213,115.188,439.709z"/>
	<path style="fill:#E6AA5C;" d="M116.364,438.117c2.783,1.762,4.751,4.233,5.688,7.148c1.081,3.362-0.782,6.281-1.394,7.24
		l-0.094,0.145c-3.633,5.501-10.124,5.119-14.947,2.298c-5.347-3.126-7.03-8.697-4.189-13.866c0.134-0.245,0.277-0.479,0.426-0.705
		l0,0C105.192,435.322,111.852,435.258,116.364,438.117z M118.809,451.321c1.33-2.081,1.703-3.82,1.174-5.466
		c-0.775-2.413-2.419-4.469-4.751-5.945c-3.723-2.359-9.483-2.551-11.608,2.327c-1.612,3.701-0.737,7.85,3.565,10.365
		c3.645,2.129,8.32,2.344,11.543-1.162L118.809,451.321z"/>
	<path style="fill:#E6AA5C;" d="M121.087,459.032c0.664-0.675,1.216-1.476,1.665-2.35c0.513-0.997,0.877-2.098,1.113-3.229
		c-1.858,3.416-4.501,6.137-8.025,7.759c-8.268,3.022-18.433-2.477-19.774-11.845c0.193-6.953,4.158-11.825,9.495-14.033
		c-5.344,1.029-10.184,5.032-11.867,10.496c-1.527,4.956-0.598,10.052,2.543,13.736
		C107.485,472.756,118.084,463.341,121.087,459.032z"/>
</g>
<path style="fill:#EDDBFF;" d="M73.324,262.392c7.754-4.217,15.71-6.916,24.086-8.283c-7.15-7.414-13.198-15.314-18.56-24.085
	c-9.051-14.81-11.291-36.434-2.131-50.841c4.689-7.376,10.067-15.605,19.11-19.852c9.379-4.405,17.903-8.85,29.399-8.771
	c1.424,0.009,2.829,0.043,4.225,0.087c-1.922-2.703-3.739-5.479-5.428-8.352c-2.777-4.722-4.231-10.421-5.542-15.246
	c-2.626-9.664,0.333-17.234,3.245-26.139c3.885-11.88,17.441-19.579,29.459-24.691c10.561-4.491,23.631-3.951,35.19-3.154
	c8.368,0.577,17.684,3.653,25.393,5.704c5.415,1.44,10.716,3.172,15.965,5.04c8.324,2.963,16.438,6.357,24.543,9.759
	c62.485,26.228,116.79,64.905,161.394,110.58c12.642,12.945,25.404,27.92,31.87,43.73c4.728,11.561,5.977,22.68,0.464,33.918
	c-5.039,10.269-14.913,18.394-27.143,22.417c-2.778,0.914-5.688,1.576-8.671,2.014c1.247,3.646,2.338,7.352,3.213,11.139
	c3.124,13.531,1.407,27.645-4.197,40.162c-6.954,15.529-22.651,26.779-40.301,33.068c-7.762,2.766-16.446,4.014-24.86,5.002
	c-14.121,1.656-26-1.158-39.4-4.783c-9.421-2.549-17.703-7.057-25.276-12.397c-2.842,3.482-6.406,6.635-11.063,9.393
	c-9.192,5.447-14.309,6.5-25.359,8.313c-5.117,0.838-10.574-0.102-15.801-0.27c-13.458-0.432-27.513-8.617-38.583-14.518
	c-8.52-4.541-16.372-9.877-24.341-15.08c-5.622,7.918-14.079,14.334-24.056,17.615c-12.635,4.158-27.254,3.695-40.022-1.229
	c-13.077-5.043-21.393-13.512-27.766-24.115c-0.031-0.053-0.065-0.102-0.097-0.154c-10.395-14.484-21.969-30.1-23.202-46.885
	C47.693,292.619,53.91,272.952,73.324,262.392z"/>
<g>
	<path style="fill:#F29D57;" d="M311.798,225.71c0.109,0.177,0.227,0.348,0.335,0.526c1.004,1.645,1.62,3.468,2.611,5.098
		c0.021,0.034,0.021,0.065,0.036,0.099c0.241,0.259,0.337,0.676,0.045,1.021c-1.489,1.759-2.211,4.024-3.809,5.715
		c-0.001,0.014,0.004,0.026,0.003,0.041c-0.232,1.654-1.611,2.454-3.229,3.083c-0.429,0.167-0.834,0.226-1.22,0.208
		C310.649,237.976,308.991,230.845,311.798,225.71z"/>
	<path style="fill:#FFB980;" d="M258.276,216.762c0.787,0.919,16.093,3.415,23.674,5.102c3.935,0.876,7.94,1.411,11.822,2.505
		c3.435,0.969,6.724,2.442,10.017,3.802c1.134-2.152,2.246-4.337,3.943-6.107c0.2-0.208,0.433-0.242,0.644-0.186
		c0.248-0.164,0.568-0.18,0.82,0.121c0.976,1.164,1.804,2.424,2.602,3.71c-2.807,5.135-1.148,12.266-5.227,15.79
		c-1.87,0-2.9-1.212-3.066-1.218c-13.321-11.715-30.773-15.828-48.412-18.242C255.462,220.018,256.981,215.251,258.276,216.762z"/>
	<path style="fill:#F29D57;" d="M303.505,240.283c-3.168-0.112-5.525-0.212-8.794-0.902c-4.328-0.917-8.293-3.319-12.208-5.307
		c-4.664-2.368-7.539-4.283-12.451-6.131c-4.047-1.523-10.066-3.467-10.066-3.467c-0.172-0.111-4.996-1.495-4.982-1.769
		c0.011-0.227,0.049-0.446,0.09-0.666C272.731,224.455,290.184,228.568,303.505,240.283z"/>
	<path style="fill:#F29D57;" d="M346.477,429.449c0.282,0.041,0.618,0.298,0.577,0.721c-0.696,7.336-1.343,14.346-1.321,21.753
		c0.001,0.26-0.093,0.438-0.223,0.555c0.004,0.438-0.271,0.885-0.704,0.719c-1.353-0.52-2.905,0.221-4.256,1.33
		c0.022-8.851,0.157-17.219,0.893-26.074C343.869,428.824,346.142,429.399,346.477,429.449z"/>
	<path style="fill:#FFB980;" d="M341.443,428.452c-0.735,8.855-0.87,17.224-0.893,26.074c-0.97,0.795-1.837,1.776-2.451,2.621
		c-0.339,0.467-0.995,0.105-0.982-0.51c0.083-4.727-0.197-9.428-0.511-14.136c-0.135-2.024-0.925-10.384-1.477-12.639
		C334.63,427.826,338.178,427.954,341.443,428.452z"/>
	<path style="fill:#F29D57;" d="M363.941,428.968c-0.574,2.255-1.394,10.616-1.535,12.64c-0.328,4.707-0.619,9.408-0.532,14.135
		c0.011,0.614-0.669,0.978-1.022,0.51c-0.905-1.193-2.247-1.146-3.691-0.722c0.949-9.517,1.776-18.621,2.033-28.19
		C361.95,427.087,364.367,427.296,363.941,428.968z"/>
	<path style="fill:#FFB980;" d="M352.137,428.554c0.435-0.061,3.961-0.929,7.058-1.213c-0.257,9.568-1.084,18.673-2.033,28.19
		c-0.999,0.293-2.048,0.762-3.037,1.127c-0.449,0.166-1.214-5.368-1.212-5.629c0.023-7.408-0.65-14.418-1.374-21.754
		C351.496,428.853,351.845,428.596,352.137,428.554z"/>
	<g>
		<g>
			<g>
				<path style="fill:#1D1D1B;" d="M335.082,449.043c-1.047,3.237-5.419,7.853-9.873,8.579c-7.25,1.182-13.769,3.563-19.653,7.944
					c-0.468,0.348-1.145,1.551-0.807,1.825c0.643,2.732,22.713,1.122,25.864-1.254c1.409-1.063,1.988-1.228,3.283-0.103
					c0.867,0.753,1.47,1.952,2.614,2.049c2.31,0.197,7.622,1.018,8.427-0.954c0.732-1.795,1.065-12.783,0.796-15.866
					C345.673,450.577,336.105,445.054,335.082,449.043z"/>
				<path style="fill:#1D1D1B;" d="M352.642,451.315c-0.269,3.084-2.076,15.515-0.089,16.434c1.847,0.854,6.817,1.234,8.71,1.073
					c1.145-0.098,2.044-1.316,2.911-2.069c1.295-1.125,1.291-1.678,2.7-0.615c3.151,2.376,25.221,3.986,25.864,1.254
					c0.338-0.274-0.34-1.478-0.807-1.825c-5.886-4.381-12.403-6.763-19.654-7.944c-4.453-0.727-5.632,0.035-8.286-7.864
					C362.557,445.49,352.702,450.63,352.642,451.315z"/>
			</g>
			<path style="fill:#F29D57;" d="M355.072,180.102c-2.853,0-5.706,0.011-8.56,2.805c0.143-1.896,0.14-3.743,0.123-5.587
				c-0.002-0.167,0.055-0.294,0.129-0.401c-0.1-1.823,2.711-3.554,3.944-4.264c1.872-1.077,5.09-2.455,7.178-1.159
				c0.454-0.187,1.152,0.19,1.031,0.849c-0.977,5.377-2.354,13.727,1.785,18.111c3.184,3.376,6.967,4.996,11.104,6.828
				c-0.63,0.809,2.58,0.141,2.18,0.71c-0.25,0.357-0.512,0.698-0.772,1.042C363.395,199.453,353.889,190.754,355.072,180.102z"/>
			<path style="fill:#FFB980;" d="M344.678,189.944c1.043-0.87,1.741-5.78,1.835-7.037c2.853-2.794,5.707-2.805,8.56-2.805
				c-1.184,10.652,8.322,19.351,18.143,18.935c-6.067,8.051-15.762,7.153-26.082,5.481c-4.876-0.79-8.841,2.387-12.648-0.761
				c-2.032-1.679-3.759-3.556-5.275-5.708C327.703,195.906,341.512,192.585,344.678,189.944z"/>
			<path style="fill:#F29D57;" d="M355.072,165.689c5.645-10.16,6.871-24.74,14.753-33.355c0.705,6.205,0.475,12.249,0.475,15.899
				c0,18.645-15.114,33.759-33.76,33.759c-3.492,0-6.86-0.359-10.03-1.065C338.392,180.538,349.608,175.706,355.072,165.689z"/>
			<path style="fill:#FFB980;" d="M303.064,153.122c1.603-10.64,4.564-11.089,13.518-30.905c0.64-1.554,1.081-2.74,1.523-3.923
				c0.364-0.975,0.729-1.947,1.205-3.122c4.064-10.032,29.455-12.24,42.608-1.397c5.068,4.179,7.101,11.475,7.907,18.56
				c-7.882,8.615-9.108,23.194-14.753,33.355c-1.832,3.358-4.322,6.122-7.256,8.342c-1.372,1.039-2.838,1.964-4.391,2.763
				c-5.024,2.586-10.882,3.936-16.916,4.133c-11.647-2.593-20.567-9.893-23.028-21.275
				C303.064,158.349,302.719,155.409,303.064,153.122z"/>
			<path style="fill:#F29D57;" d="M317.695,145.132c-3.432,2.708-1.033,10.802,3.255,11.649c4.29,0.846,8.451-1.944,9.298-6.233
				c0.848-4.288,1.338-13.679-2.95-14.526C323.008,135.175,320.671,142.781,317.695,145.132z"/>
			<path style="fill:#3C3C3B;" d="M344.29,129.801c3.082,0.101,6.027,1.478,8.472,3.292c0.944,0.703,1.421,1.857,0.776,2.957
				c-0.547,0.935-2.01,1.481-2.959,0.777c-1.806-1.341-3.981-2.626-6.289-2.703C341.511,134.032,341.501,129.708,344.29,129.801z"/>
			<path style="fill:#1D1D1B;" d="M341.647,138.038c0.186-2.767,4.51-2.784,4.323,0c-0.136,2.041-0.308,4.079-0.322,6.126
				c-0.017,2.787-4.344,2.788-4.323,0C341.339,142.117,341.511,140.079,341.647,138.038z"/>
			<path style="fill:#1D1D1B;" d="M311.725,136.862c0.155-1.167,0.864-2.162,2.162-2.162c1.059,0,2.318,0.991,2.162,2.162
				c-0.2,1.485-0.447,2.963-0.645,4.448c-0.158,1.168-0.867,2.162-2.162,2.162c-1.061,0-2.319-0.991-2.162-2.162
				C311.277,139.825,311.524,138.347,311.725,136.862z"/>
			<path style="fill:#3C3C3B;" d="M317.912,128.558c-0.291-1.059-1.555-1.924-2.658-1.51c-1.865,0.701-3.724,1.412-5.556,2.19
				c-1.087,0.46-1.313,2.04-0.776,2.957c0.652,1.113,1.872,1.237,2.958,0.775c1.487-0.63,3.009-1.185,4.522-1.753
				C317.504,130.804,318.246,129.773,317.912,128.558z"/>
			<path style="fill:#F29D57;" d="M339.102,158.884c-1.492,0.452-2.585,0.328-3.941-0.436c-0.811-0.458-1.537,0.788-0.727,1.244
				c0.376,0.211,0.742,0.373,1.107,0.51c-2.447,7.663-14.709,6.466-20.404,4.621c-0.887-0.289-1.264,1.105-0.383,1.389
				c6.564,2.127,19.536,2.914,22.192-5.663c0.805,0.087,1.63-0.001,2.538-0.276C340.372,160.004,339.994,158.614,339.102,158.884z"
				/>
			<path style="fill:#FFB980;" d="M369.554,156.702c4.298,0.891,8.503-1.872,9.393-6.168c0.89-4.297-1.87-8.502-6.169-9.393
				C368.479,140.251,365.257,155.813,369.554,156.702z"/>
			<path style="fill:#F29D57;" d="M370.25,152.661c0,0,0.012-0.268,0.082-0.694c0.074-0.425,0.176-1.047,0.435-1.716
				c0.245-0.666,0.671-1.39,1.24-1.822c0.283-0.221,0.607-0.326,0.937-0.388c0.16-0.038,0.868,0.421,0.922,0.721
				c0.055,0.303,0.07,0.619,0.061,0.861c0.022,0.235-0.984,1.118-1.271,1.105c-0.308-0.037-0.515-0.33-0.514-0.311l-0.287,0.028
				c0,0-0.023,0.078-0.066,0.224c-0.042,0.15-0.061,0.414,0.079,0.736c0.133,0.325,0.459,0.669,0.883,0.88
				c0.422,0.206,0.921,0.333,1.464,0.307c0.273-0.017,0.56-0.044,0.875-0.144c0.154-0.045,0.323-0.121,0.494-0.211
				c0.065-0.025,0.229-0.149,0.334-0.238l0.238-0.217c0.625-0.725,0.772-1.475,0.773-2.191c-0.025-0.709-0.236-1.375-0.604-1.98
				c-0.37-0.596-0.852-1.197-1.688-1.581c-0.176-0.087-0.478-0.177-0.775-0.211c-0.171-0.022-1.223,0.146-1.534,0.282
				c-0.618,0.243-1.176,0.65-1.545,1.131c-0.759,0.958-0.957,1.985-1.03,2.797c-0.067,0.824-0.011,1.484,0.066,1.947
				c0.074,0.464,0.143,0.704,0.143,0.704L370.25,152.661z"/>
		</g>
	</g>
	<path style="fill:#1D1D1B;" d="M365.714,148.79c-0.841-1.46-1.004-4.18-0.96-4.956c0.354-6.337,1.786-10.499,0.501-16.892
		c-0.682-3.393-1.983-7.447-4.103-10.289C371.898,120.938,366.454,136.486,365.714,148.79z"/>
	<path style="fill:#1D1D1B;" d="M309.905,87c-0.325-1.623-0.539-3.457-0.482-5.297c0.701-0.558,1.511-0.687,2.436-0.176
		c4.56,2.52,7.373,4.775,11.414,3.812c3.098-0.737,5.522-2.803,8.899-2.216c1.489,0.259,2.858,0.739,4.034,1.432
		c-3.792,1.509-7.047,5.631-10.301,6.445C320.905,93,311.905,94,309.905,87z"/>
	<path style="fill:#1D1D1B;" d="M343.905,100c-3-1-9-5-5-7c3.493-1.588,6.887-1.761,10.21-1.133
		c0.961,0.618,1.891,1.332,2.794,2.117c1.802,1.564,3.291,3.029,5.472,4.065c1.65,0.785,3.407,1.351,5.136,1.954
		C356.24,100.367,349.894,101.796,343.905,100z"/>
	<path style="fill:#3C3C3B;" d="M305.843,94.475c0-3.486,1.109-10.804,3.58-12.771c-0.057,1.839,0.157,3.674,0.482,5.297
		c2,7,11,6,16,4c3.254-0.813,6.509-4.936,10.301-6.445c1.958,1.152,3.383,2.894,3.942,5.186c3.32-0.564,6.267,0.389,8.967,2.127
		c-3.323-0.628-6.717-0.455-10.21,1.133c-4,2,2,6,5,7c5.988,1.796,12.335,0.367,18.611,0.003c0.292,0.102,0.585,0.202,0.874,0.307
		c3.22,1.171,6.359,2.698,8.14,5.761c1.71,2.942,1.565,6.267-0.08,8.937c0.492,0.9,4.869,1.776,6.459,2.906
		c2.463,1.751,3.754,4.468,4.23,7.503c0.918,5.841-3.154,18.915-7.849,16.197c-0.641-0.371-1.993-0.465-2.373-0.435
		c-5.001,3.689-1.509,8.549-4.893,8.558c-0.559,0.001-0.984-0.382-1.31-0.949c0.74-12.304,6.184-27.852-4.562-32.136
		c-1.5-2.011-3.405-3.42-5.806-3.535c-0.329-0.015-0.652-0.011-0.979-0.011c-4.098-0.613-9.079,0.543-12.382-1.659
		c-4.324-4.324-10.09-7.207-15.855-5.766c-2.727,1.363-5.424,4.033-5.709,7.977c-0.791,1.355-1.874,3.317-2.315,4.633
		c-0.007,0.038-1.067-0.47-1.236-1.089c-0.559-2.055-0.086-6.703-0.042-6.826C316.083,109.997,305.843,105.308,305.843,94.475z"/>
	<path style="fill:#1D1D1B;" d="M326.13,105.683c5.766-1.441,11.531,1.441,15.855,5.766c3.303,2.202,8.284,1.046,12.382,1.659
		c-3.671,0.001-7.135,0.893-10.904,0.343c-3.869-0.563-7.561-2.245-10.684-4.562c-0.239-0.177-0.912-0.549-1.036-0.592
		c-3.346-1.148-6.987,3.774-10.412,3.84c-0.005,0.015-0.396,0.641-0.91,1.523C320.706,109.716,323.403,107.046,326.13,105.683z"/>
	<path style="fill:#BD000B;" d="M325.799,219.439c-3.205,0.111-12.199,15.648-12.544,15.037c-0.428-0.754-2.376-3.823-3.103-4.884
		C314.948,222.34,315.879,218.422,325.799,219.439z"/>
	<path style="fill:#E6202C;" d="M306.587,223.427c3.665-6.692,5.991-11.69,10.779-18.559c4.242-6.083,9.579-10.139,19.607-11.653
		c0.326-0.048-0.694,1.092-0.555,2.033c1.031,6.987,9.832,7.868,15.528,7.288c5.647-0.574,11.838-2.435,15.426-7.043
		c0.233-0.3-1.284-0.847-0.944-0.749c5.486,1.609,13.75,3.201,18.887,5.754c5.167,2.567,5.062,2.15,8.036,6.979
		c3.858,6.261-2.854,37.789-4.347,43.262l-7.185-2.207c2.312-4.625,8.849-25.984,3.406-27.539
		c-10.09-4.324-21.62,11.531-23.061,18.738c-3.448,15.768-4.707,31.367-4.813,46.855c-0.359-0.042-0.718-0.084-1.075-0.125
		c-3.354-0.384-6.713-0.469-10.08-0.658c-3.022-0.171-11.214,0.05-13.099-3.407c-0.36,0.306-1.167,0.302-1.177-0.313
		c-0.436-26.613-4.107-45.438-5.411-61.81c-0.048-0.603-0.306-0.846-0.711-0.832c-10.094-1.032-10.851,2.901-15.647,10.153
		C308.393,227.018,306.37,223.823,306.587,223.427z"/>
	<path style="fill:#BD000B;" d="M385.226,220.992c4.477,1.736,2.263,16.341,0.606,28.772c0,0-10.244-3.005-10.349-3.038
		c0,0,3.352-18.137,2.196-17.959c-1.922,0.297-2.033,1.771-3.083,7.679c-0.793,4.463-1.283,15.718-1.987,20.094
		c-1.752,10.897-0.613,18.482-1.462,29.145c-0.025,0.313-0.255,0.459-0.483,0.501c-0.008,0.271-0.163,0.521-0.517,0.588
		c-4.255,0.809-8.534,0.308-12.796-0.188c0.105-15.488,1.364-31.087,4.813-46.855C363.605,232.523,374.99,217.023,385.226,220.992z"
		/>
	<path style="fill:#1D1D1B;" d="M341.985,320.446c1.44,4.324,8.647,4.324,8.647,7.207c5.407,35.144-1.862,81.404-1.599,116.391
		c-0.085-0.175-0.304,1.589-0.495,1.632c-5.238,1.184-7.689,0.916-11.571-0.004c-0.039-0.009-0.508-0.174-0.547-0.172
		C353.749,410.705,344.713,357.266,341.985,320.446z"/>
	<path style="fill:#3C3C3B;" d="M363.605,308.915c-1.314-15.756-19.368-14.771-31.291-22.096c0.061-1.689-0.056-3.373-0.476-5.045
		c-0.285-1.141,4.551,2.047,6.838,2.248c3.537,0.313,6.941,1.056,10.489,1.258c7.35,0.42,22.251-1.879,22.241-1.109
		c-0.145,11.35,6.059,23.501,6.251,34.834c0.222,13.022-1.309,26.177-1.99,39.174c-0.691,13.151-8,81.672-9.035,86.95
		c-0.492,2.516-4.629,2.199-10.553,1.73c0.448-6.299,1.061-24.983,1.76-31.283C362.164,379.542,367.93,344.949,363.605,308.915z"/>
	<path style="fill:#575756;" d="M328.686,354.923c-0.814-12.896-3.048-25.82-3.393-38.725c-0.262-9.879,6.67-19.749,7.021-29.379
		c11.923,7.324,29.978,6.34,31.291,22.096c4.324,36.034-1.441,70.627-5.766,106.661c-0.699,6.3-1.311,24.984-1.76,31.283
		c-0.444-0.035-6.041-0.73-7.046-2.815c-0.264-34.986,7.006-81.247,1.599-116.391c0-2.883-7.207-2.883-8.647-7.207
		c2.728,36.819,11.764,90.259-5.564,125.054c-3.083,0.302-3.767-2.092-3.864-2.749C330.999,432.123,329.494,367.713,328.686,354.923
		z"/>
	<path style="fill:#1D1D1B;" d="M358.455,289.46c0.152,0.291,2.625,0.441,2.712-0.239c0.298-2.309,0.279-3.961,0.567-6.436
		c0.238-2.041,13.447-81.081,14.466-85.162c0.484-1.94-6.681-2.5-6.418-1.966c1.917,3.896,0.174,11.242-0.496,16.093
		C368.737,215.725,356.147,285.028,358.455,289.46z"/>
	<path style="fill:#1D1D1B;" d="M334.62,209.602c-0.378-4.871-1.598-12.28,0.279-16.096c0.256-0.522-6.132-0.247-5.788,1.71
		c0.722,4.119,8.925,83.602,9.045,85.652c0.145,2.482,0.057,4.132,0.217,6.45c0.047,0.685,2.251,0.632,2.398,0.345
		C343.017,283.329,334.929,213.597,334.62,209.602z"/>
	<g>
		<path style="fill:#F29D57;" d="M322.579,277.313c0.136,0.356,0.921,1.005,1.237,0.751c1.754-0.079,3.96-0.507,5.644-0.931
			c2.586-0.65,5.208-1.151,7.833-1.613c5.556-0.979,11.177-1.49,16.791-1.97c4.133-0.353,8.237-0.348,12.287-1.35
			c2.939-0.728,7.978-2.684,10.563-4.281C358.816,264.488,340.698,273.265,322.579,277.313z"/>
		<path style="fill:#FFB980;" d="M375.483,246.726c-0.673,1.077-2.093,8.686-2.096,8.784c-8.203,0.127-15.981,1.99-23.57,5.201
			c-9.135,3.863-12.684,7.744-22.129,10.483c-0.404,0.117-5.9,0.973-5.853,1.292c-0.008,0.038-0.026,0.068-0.029,0.111
			c-0.1,1.638,0.197,3.209,0.773,4.715c18.119-4.048,36.237-12.824,54.355-9.394c0.181-0.111,0.382-0.226,0.535-0.333
			c0.068,0.05,2.772,0.046,4.241-1.975c0.402-0.553,0.619-1.504,0.728-2.305c0.001-4.032,1.903-9.447,3.394-13.542
			C383.171,248.875,375.483,246.726,375.483,246.726z"/>
		<path style="fill:#F29D57;" d="M389.004,250.738c0,0-1.573-0.483-3.172-0.974c-1.59,3.992-3.393,9.51-3.394,13.542
			c0.094-0.696,0.028,0.1,0,0c2.204-1.188,3.216-3.57,4.3-5.807C388.071,254.75,388.858,251.125,389.004,250.738z"/>
	</g>
	<g>
		<path style="fill:#FFB980;" d="M252.23,218.399c9.203,0.949,2.092-7.801-2.446-11.113c-0.412,0.794-0.457,1.802,0.088,2.632
			c0.403,0.611,0.847,1.181,1.279,1.772c2.037,2.789,2.319,4.655,0.705,4.655c-3.744,0-8.629-5.182-10.491-7.341
			C243.921,213.896,246.509,217.809,252.23,218.399z"/>
		<path style="fill:#FFB980;" d="M271.031,224.894c0.388-1.847,2.048-4.189,1.07-4.355c-0.588-0.1-7.955-2.483-9.733-3.61
			C259.168,214.899,265.915,225.605,271.031,224.894z"/>
		<path style="fill:#FFB980;" d="M239.107,222.992c5.007,2.156,12.968,2.1,17.876,2.612c1.925,0.2,3.855,0.526,5.771,0.895
			C256.424,219.999,247.116,223.203,239.107,222.992z"/>
		<path style="fill:#FFB980;" d="M237.778,206.18c-2.865,0.845,1.784,9.78,6.989,12.225c-0.211-0.379,2.394,1.206,2.145,0.836
			C244.47,215.626,237.658,210.436,237.778,206.18z"/>
		<path style="fill:#F29D57;" d="M271.031,224.894c-4.356-0.819-5.593-3.769-8.662-7.965c0,0-0.756-0.351-1.912-1.286
			c-2.621-2.119-3.104-6.122-7.087-7.677c-1.173-0.458-3.109-1.603-3.586-0.679c4.538,3.312,11.315,12.112,2.244,10.94
			c-5.705-0.737-8.107-4.33-10.663-9.221c-0.823-0.955-1.618-1.879-2.409-2.599c-0.121-0.111-0.25-0.153-0.378-0.17
			c-0.157-0.116-0.36-0.175-0.599-0.121c-0.072,0.017-0.132,0.045-0.201,0.064c-0.133,4.691,5.099,9.558,8.643,12.665
			c-1.779-0.912-7.639-3.009-10.417-5.084c-0.772-0.577-2.925-2.756-4.158-2.576c-0.246,7.595,10.1,5.188,14.362,8.915
			c-1.993,0.924-5.08-0.273-7.726-0.139c-2.655,0.134-2.142,2.51,0.625,3.031c8.17,0.898,17.316-2.993,23.647,3.507
			c0.8,0.155,1.626,0.201,2.421,0.336c1.435,0.244,2.586,0.276,4.814,0.995C270.816,228.097,270.776,226.104,271.031,224.894z"/>
		<path style="fill:#FFB980;" d="M231.846,211.185c-0.429,0.262-0.636,0.476-0.936,1.497c-0.637,2.182,4.046,4.856,4.113,4.883
			c4.195,1.682,7.039,2.253,11.186,2.535C241.945,216.374,231.6,218.78,231.846,211.185z"/>
	</g>
	<path style="fill:#FFB980;" d="M311.298,267.489c-0.158-0.509-0.098-1.001,0.336-1.435c1.416-1.416,4.601,1.83,5.779,2.428
		c2.572,1.306,6.114,2.441,8.487,1.798c2.032-0.55,5.125-0.296,7.303-0.925c0.635-0.184,1.837,2.414,1.928,4.764
		C327.388,276.296,318.933,270.974,311.298,267.489z"/>
	<path style="fill:#FFB980;" d="M318.179,273.984c-2.592,7.774-12.142-1.904-16.742-6.709c-0.123-1.816,3.266,0.869,3.647,1.084
		c1.953,1.103,3.351,3.178,5.274,4.33c1.022,0.611,6.211,0.838,7.239,0.539C317.824,273.444,318.284,273.667,318.179,273.984z"/>
	<path style="fill:#F29D57;" d="M318.179,273.984c0.105-0.317-0.354-0.54-0.582-0.756c-0.604-0.478-1.07-0.999-1.4-1.228
		c-1.161-0.806-4.332-2.685-4.898-4.511c7.635,3.484,16.09,8.807,23.833,6.63c0.054,1.399,0.145,0.898-0.396,0.998
		c-2.557,0.47-5.565,1.891-8.082,2.534c-2.153,0.551-3.966,1.235-6.225,1.056c-4.196-0.336-9.428-0.461-13.041-2.62
		c-2.462-1.472-5.648-5.631-5.95-8.772c-0.001-0.016,0.002-0.024,0.001-0.04C306.037,272.08,315.587,281.759,318.179,273.984z"/>
</g>
<g>
	<path style="fill:#F9B233;" d="M141.302,171.352c2.377,1.473,4.844,2.669,6.832,3.61c2.915,1.38,5.919,2.73,9.027,3.669
		c1.13-3.235,2.96-6.131,5.124-8.83c-5.566-3.171-11.23-6.072-17.321-8.159C143.259,164.592,142.134,167.908,141.302,171.352z"/>
	<path style="fill:#FFDE00;" d="M154.813,160.464c-1.956-0.876-4.394-1.935-6.981-2.774c-1.119,1.21-2.054,2.543-2.867,3.952
		c6.09,2.086,11.755,4.987,17.321,8.159c0.976-1.217,2.012-2.398,3.094-3.546C162.162,163.858,158.457,162.096,154.813,160.464z"/>
	<path style="fill:#E6202C;" d="M211.602,194.639c0.006-0.045,0.019-0.088,0.023-0.134c0.037-0.097,0.026-0.415,0.021-0.459
		c-0.001-0.001,0-0.002,0-0.004c0-0.005-0.003-0.008-0.003-0.013c-0.601-5.11-10.805-7.394-14.555-8.635
		c-5.645-1.867-11.049-4.098-16.4-6.481c-5.457-3.689-9.918-8.595-15.165-12.556c-0.047-0.036-0.096-0.068-0.144-0.103
		c-1.082,1.148-2.118,2.329-3.094,3.546c12.204,6.954,23.943,15.187,38.709,18.878C204.53,189.563,208.066,192.011,211.602,194.639z
		"/>
	<path style="fill:#BE1622;" d="M200.994,188.679c-14.767-3.692-26.506-11.924-38.709-18.878c-2.163,2.699-3.994,5.595-5.124,8.83
		c0.798,0.241,1.601,0.461,2.412,0.64c6.421,1.415,13.048,1.617,19.398,3.367c5.289,2.518,10.497,5.176,15.585,8.252
		c3.413,2.063,11.917,8.451,16.151,5.378c0.099-0.071,0.169-0.154,0.217-0.241c0.387-0.371,0.605-0.857,0.678-1.388
		C208.066,192.011,204.53,189.563,200.994,188.679z"/>
	<path style="fill:#BE1622;" d="M132.691,159.482c-0.029,0.092-0.051,0.176-0.052,0.231c-0.095,4.996,4.12,8.823,8.663,11.639
		c0.832-3.444,1.957-6.76,3.662-9.71c-2.26-0.774-4.575-1.442-6.97-1.963C136.407,159.15,134.542,159.189,132.691,159.482z"/>
	<path style="fill:#E6202C;" d="M133.153,158.598c-0.14,0.123-0.363,0.573-0.462,0.884c1.85-0.294,3.716-0.332,5.303,0.197
		c2.395,0.521,4.71,1.189,6.97,1.963c0.813-1.409,1.748-2.742,2.867-3.952C142.685,156.02,136.939,155.235,133.153,158.598z"/>
</g>
<g>
	<path style="fill:#F9B233;" d="M177.602,50.904c-1.015,2.201-1.825,4.395-2.473,6.205c-1.226,3.427-2.408,6.964-2.984,10.577
		c2.968,0.805,5.88,1.771,8.728,2.882c1.794-5.57,3.928-11.136,4.978-16.832C183.169,52.583,180.419,51.617,177.602,50.904z"/>
	<path style="fill:#FFDE00;" d="M185.85,53.736c-1.05,5.696-3.183,11.262-4.978,16.832c1.699,0.663,3.38,1.365,5.021,2.149
		c1.848-3.259,3.14-6.854,4.321-10.39c0.541-1.619,1.167-3.555,1.694-5.618C189.933,55.617,187.911,54.623,185.85,53.736z"/>
	<path style="fill:#E6202C;" d="M177.956,84.246c2.481-3.558,5.184-6.97,7.449-10.68c0.17-0.278,0.328-0.564,0.489-0.848
		c-1.641-0.785-3.322-1.486-5.021-2.149C179.413,75.1,178.182,79.635,177.956,84.246z"/>
	<path style="fill:#BE1622;" d="M172.145,67.686c-0.065,0.41-0.128,0.82-0.177,1.232c-0.775,6.528-0.323,13.144-1.44,19.636
		c-1.985,5.511-4.116,10.955-6.677,16.321c-1.716,3.6-7.235,12.691-3.761,16.603c0.081,0.091,0.17,0.153,0.262,0.192
		c0.442,0.378,0.996,0.553,1.583,0.546c0.1,0.028,0.416-0.015,0.459-0.024c0.001-0.001,0.002,0,0.003,0
		c0.005-0.001,0.007-0.004,0.012-0.005c5.027-1.101,6.293-11.481,7.16-15.334c1.302-5.801,2.99-11.399,4.834-16.959
		c1.062-1.963,2.28-3.824,3.552-5.648c0.225-4.611,1.457-9.146,2.916-13.678C178.025,69.456,175.113,68.491,172.145,67.686z"/>
	<path style="fill:#E6202C;" d="M189.938,40.589c-0.177-0.164-0.921-0.421-1.161-0.401c-1.049,0.084-2.025,0.358-2.938,0.776
		c0.966,4.362,0.778,8.602,0.01,12.772c2.061,0.887,4.083,1.881,6.059,2.974C193.36,51.033,194.039,44.377,189.938,40.589z"/>
	<path style="fill:#BE1622;" d="M185.84,40.964c-3.708,1.693-6.34,5.825-8.238,9.94c2.817,0.713,5.566,1.679,8.248,2.832
		C186.619,49.566,186.806,45.326,185.84,40.964z"/>
</g>
<g>
	<path style="fill:#BE1622;" d="M230.611,120.652c-7-6-10-17-18-23c-0.383-0.766-1.207-1.53-2.245-2.183
		c-0.228,0.175-0.425,0.392-0.587,0.644c-0.078,0.068-0.216,0.355-0.232,0.396c0.001,0.001-0.001,0.002-0.001,0.003
		c-0.002,0.004-0.001,0.008-0.003,0.013c-1.847,4.803,6.124,11.572,8.865,14.416c4.128,4.279,7.873,8.769,11.501,13.368
		c3.113,5.804,4.78,12.223,7.581,18.17c0.452,0.958,0.958,1.892,1.499,2.807c3.156-2.386,6.053-5.25,8.743-8.301
		C242.229,130.907,235.283,125.325,230.611,120.652z"/>
	<path style="fill:#E6202C;" d="M248.764,133.817c-5.025-4.239-10.798-7.502-15.604-12.007c-3.51-4.69-6.882-9.465-9.955-14.556
		c-2.061-3.414-6.616-13.025-11.794-12.276c-0.12,0.018-0.222,0.059-0.305,0.113c-0.274,0.079-0.521,0.209-0.741,0.378
		c1.038,0.653,1.862,1.418,2.245,2.183c8,6,11,17,18,23c4.672,4.672,11.618,10.254,17.12,16.333
		c0.674-0.765,1.339-1.538,1.987-2.322C249.405,134.376,249.088,134.091,248.764,133.817z"/>
	<path style="fill:#FFDE00;" d="M256.885,142.955c-2.182-2.901-4.479-5.826-7.167-8.291c-0.648,0.784-1.313,1.557-1.987,2.322
		c3.024,3.341,5.609,6.833,7.142,10.405c1.119-0.875,2.221-1.773,3.289-2.711C257.719,144.068,257.287,143.49,256.885,142.955z"/>
	<path style="fill:#F9B233;" d="M238.988,145.286c1.54,2.599,3.386,5.036,5.239,7.394c0.323,0.412,0.669,0.848,1.03,1.299
		c3.334-2.035,6.561-4.205,9.616-6.589c-1.533-3.572-4.118-7.063-7.142-10.405C245.041,140.036,242.144,142.9,238.988,145.286z"/>
	<path style="fill:#BE1622;" d="M254.873,147.39c-3.055,2.384-6.282,4.554-9.616,6.589c2.219,2.761,5.141,6.104,8.438,8.309
		C257.092,157.286,256.965,152.263,254.873,147.39z"/>
	<path style="fill:#E6202C;" d="M258.162,144.679c-1.068,0.938-2.17,1.836-3.289,2.711c2.092,4.873,2.219,9.896-1.178,14.897
		c2.746,1.836,5.75,2.885,8.834,2.123c0.234-0.057,0.857-0.538,0.975-0.749C266.789,157.69,261.969,149.915,258.162,144.679z"/>
</g>
<g>
	<path style="fill:#E6332A;" d="M174.07,432.955c0.226-5.063,2.46-10.174,4.815-14.789c1.041-2.035,3.783-5.518,5.27-7.296
		c4.275-5.108,9.853-7.02,16.191-8.401c3.948-0.859,8.496-0.691,12.759,0.427c6.761,4.133,12.024,9.791,14.962,17.13
		c5.299,17.136-6.942,37.256-26.144,39.019c-14.128-1.109-23.635-9.68-27.579-20.769
		C174.098,436.511,173.992,434.733,174.07,432.955z"/>
	<path style="fill:#FFFFFF;" d="M184.242,419.138c-5.955,8.423-5.722,20.433,3.73,26.272c8.78,5.421,18.58,2.894,24.454-6.075
		c5.653-8.637,6.534-19.937-2.771-26.564c-3.092-2.201-7.315-4.415-12.2-3.114C192.027,411.103,187.548,414.459,184.242,419.138z"/>
	<path style="fill:#FF8654;" d="M181.313,416.433c3.874-5.481,9.108-9.232,15.135-10.837c6.954-1.854,12.702,2.237,14.59,3.583
		l0.285,0.205c10.82,7.96,9.371,21.13,3.134,30.655c-6.911,10.558-18.424,13.408-28.649,7.095c-0.485-0.3-0.947-0.613-1.392-0.939
		l0,0C174.476,438.88,175.03,425.319,181.313,416.433z M208.436,412.82c-4.099-2.921-7.598-3.859-11.003-2.952
		c-4.989,1.329-9.342,4.462-12.587,9.055c-5.186,7.333-6.168,19.036,3.539,23.863c7.366,3.663,15.897,2.308,21.461-6.188
		c4.71-7.196,5.626-16.688-1.176-23.608L208.436,412.82z"/>
	<path style="fill:#F9B233;" d="M190.292,417.019c0.348,2.131,0.927,4.181,1.433,6.244c-2.707,2.04-5.576,3.852-7.79,6.474
		c-0.097,0.117-0.153,0.233-0.193,0.352c-0.329,0.606-0.137,1.49,0.729,1.535c2.711,0.135,5.492-0.373,8.242-0.617
		c0.001,3.206,0.446,5.29,1.553,9.391c0.273,1.009,1.79,0.565,2.01-0.181l0.004-0.006c1.174-2.853,2.094-5.83,2.934-8.847
		c2.765,0.615,5.447,1.502,8.342,1.322c0.742-0.046,0.97-0.694,0.814-1.259c0.007-0.381-2.764-3.131-3.673-4.103
		c-1.111-1.189-2.309-2.321-3.486-3.465c0.596-2.265,1.211-4.512,1.917-6.715c0.256-0.809-0.497-1.784-1.367-1.32
		c-2.001,1.058-3.774,2.408-5.514,3.815c-1.366-1.027-4.98-3.952-5.271-3.932C190.322,415.546,190.151,416.147,190.292,417.019z"/>
	<path style="fill:#BE1622;" d="M233.111,445.669c1.225-3.23,2.06-6.516,2.353-9.796c0.911-10.214-2.832-20.192-11.29-26.75
		c-1.305-1.418-2.876-2.625-4.612-3.63c-1.976-1.145-4.177-1.999-6.456-2.598c6.761,4.133,12.024,9.791,14.962,17.13
		c5.299,17.136-6.942,37.256-26.144,39.019c-14.128-1.109-23.635-9.68-27.579-20.769c1.544,10.98,9.191,21.241,20.136,25.23
		c9.929,3.619,20.681,2.61,28.216-3.759C224.976,457.822,231.103,450.966,233.111,445.669z"/>
</g>
</svg>
